<?xml version="1.0" encoding="UTF-8" standalone="no"?>
<svg
   version="1.1"
   width="256"
   height="256"
   viewBox="0 0 256 256"
   xml:space="preserve"
   id="svg1"
   sodipodi:docname="github.svg"
   inkscape:version="1.3.2 (091e20e, 2023-11-25)"
   xmlns:inkscape="http://www.inkscape.org/namespaces/inkscape"
   xmlns:sodipodi="http://sodipodi.sourceforge.net/DTD/sodipodi-0.dtd"
   xmlns="http://www.w3.org/2000/svg"
   xmlns:svg="http://www.w3.org/2000/svg"><sodipodi:namedview
   id="namedview1"
   pagecolor="#ffffff"
   bordercolor="#000000"
   borderopacity="0.25"
   inkscape:showpageshadow="2"
   inkscape:pageopacity="0.0"
   inkscape:pagecheckerboard="0"
   inkscape:deskcolor="#d1d1d1"
   inkscape:zoom="1.4142136"
   inkscape:cx="-70.003569"
   inkscape:cy="106.41957"
   inkscape:window-width="1848"
   inkscape:window-height="1007"
   inkscape:window-x="36"
   inkscape:window-y="0"
   inkscape:window-maximized="1"
   inkscape:current-layer="svg1" />

<defs
   id="defs1">

	
</defs>

<path
   style="fill:#c27ba0;fill-opacity:1;stroke:#b45d8a;stroke-width:2.2;stroke-linecap:round;stroke-linejoin:round;paint-order:fill markers stroke;stroke-dasharray:none;stroke-opacity:1"
   d="m 100.98519,236.90134 c -0.0236,-3.38709 -0.12879,-10.09531 -0.23386,-14.90717 l -0.19104,-8.74883 -4.608437,1.00215 c -6.829011,1.48504 -11.016906,2.04057 -16.750879,2.222 -12.330038,0.39015 -21.837313,-2.80041 -28.617326,-9.60374 -2.690653,-2.69991 -3.918737,-4.66341 -6.18129,-9.88286 -4.05676,-9.35848 -8.611303,-15.94785 -14.779946,-21.38315 -1.813339,-1.59777 -1.484651,-1.72781 1.091352,-0.4318 4.768485,2.39908 8.56489,6.16106 13.039196,12.92096 3.702453,5.59376 7.049682,9.37812 10.77832,12.18591 9.665397,7.27837 22.262777,9.10493 35.895029,5.20461 3.270149,-0.93562 9.312273,-3.27891 10.176551,-3.94673 0.19492,-0.15061 0.45428,-1.217 0.57637,-2.36976 0.3567,-3.3679 1.90064,-8.95181 3.24064,-11.72024 1.95323,-4.03535 3.56029,-5.91173 9.49373,-11.08464 3.03215,-2.64352 5.47652,-4.84288 5.43193,-4.88748 -0.0446,-0.0446 -3.93873,-0.52339 -8.65363,-1.06399 -14.414354,-1.65271 -22.411182,-3.2017 -30.515375,-5.91084 -21.414859,-7.15873 -34.356123,-20.96404 -39.96342,-42.63165 -1.822953,-7.04422 -2.715018,-13.89012 -2.999494,-23.018779 -0.39437,-12.655075 1.339517,-21.397488 6.131156,-30.913846 2.418448,-4.803122 4.895477,-8.422594 8.887046,-12.985886 l 2.669609,-3.051987 -1.121197,-2.802343 c -0.616659,-1.541288 -1.495683,-4.377397 -1.953386,-6.30246 -0.77929,-3.27763 -0.832047,-3.965902 -0.829966,-10.827766 0.0021,-6.79933 0.06322,-7.60867 0.84821,-11.225335 0.465293,-2.143727 1.100401,-4.739586 1.411351,-5.768575 l 0.565362,-1.870889 1.318643,-0.09638 c 3.060491,-0.223705 10.777188,2.027967 17.704102,5.16592 4.62747,2.096286 11.314084,5.869597 17.034465,9.612689 l 3.974008,2.600367 4.756808,-1.212602 c 20.107738,-5.125854 41.427438,-6.031787 61.974828,-2.633483 5.33272,0.881969 8.34247,1.528654 13.72146,2.948229 l 3.58747,0.946774 3.74018,-2.451686 c 5.94529,-3.897138 8.38,-5.317102 14.03006,-8.182563 8.05999,-4.087666 15.61321,-6.606834 20.72453,-6.912099 l 1.392,-0.08313 0.7096,2.33169 c 1.1239,3.693026 1.9069,7.913592 2.32268,12.519807 0.6648,7.364976 -0.4346,15.593892 -2.87358,21.508466 -0.50375,1.221607 -0.91591,2.393451 -0.91591,2.6041 0,0.210647 0.99232,1.489278 2.20515,2.841401 8.61352,9.602744 13.41249,20.071469 14.96004,32.63468 0.49511,4.019362 0.22182,17.768706 -0.45534,22.908176 -2.71721,20.62294 -10.6188,35.57879 -23.81118,45.06898 -12.21983,8.79056 -27.25536,13.0963 -54.79392,15.69138 -1.20048,0.11312 -2.35624,0.29697 -2.56835,0.40855 -0.24077,0.12666 1.65809,1.98169 5.05448,4.93783 6.03753,5.25492 7.70688,7.16223 9.48372,10.83561 1.42706,2.95026 2.03438,4.74774 2.92165,8.64717 0.62893,2.76409 0.66263,3.85769 0.77346,25.10678 l 0.11589,22.21681 h -34.94036 -34.94037 z"
   id="path2" /></svg>
