<svg width="256" height="256" viewBox="0 0 256 256" fill="none" xmlns="http://www.w3.org/2000/svg">
<g clip-path="url(#clip0_781_2)">
<g filter="url(#filter0_d_781_2)">
<path d="M96.0095 210.764C88.7343 210.764 89.9718 208.381 87.4619 202.364L66.0703 141.245L230.736 56.4287" fill="#BF9770"/>
<path d="M96.0095 210.764C88.7343 210.764 89.9718 208.381 87.4619 202.364L66.0703 141.245L230.736 56.4287" stroke="#443B31" stroke-width="9.28231" stroke-miterlimit="10" stroke-linecap="round"/>
<path d="M96.0098 210.765C101.623 210.765 104.103 208.538 107.237 205.891L137.176 180.617L99.832 161.065" fill="#BF9770"/>
<path d="M96.0098 210.765C101.623 210.765 104.103 208.538 107.237 205.891L137.176 180.617L99.832 161.065" stroke="#443B31" stroke-width="9.28231" stroke-miterlimit="10" stroke-linecap="round"/>
<path d="M99.8268 161.07L190.318 219.113C200.647 224.06 208.097 221.5 210.672 210.79L247.507 60.0898C251.279 46.9631 241.743 41.0063 231.864 44.901L15.568 117.31C0.802958 122.452 0.892773 129.605 12.8784 132.789L68.3857 147.83L196.885 77.4447C202.952 74.2518 208.521 75.9674 203.95 79.4895L99.8268 161.07Z" fill="#BF9770" stroke="#443B31" stroke-width="9.28231" stroke-miterlimit="10" stroke-linecap="round" stroke-linejoin="round"/>
<path d="M95.7383 209.862L99.8276 161.323Z" fill="#BF9770"/>
<path d="M95.7383 209.862L99.8276 161.323" stroke="#443B31" stroke-width="9.28231" stroke-linecap="round" stroke-linejoin="round"/>
</g>
</g>
<defs>
<filter id="filter0_d_781_2" x="-0.474609" y="39.0859" width="257.459" height="191.093" filterUnits="userSpaceOnUse" color-interpolation-filters="sRGB">
<feFlood flood-opacity="0" result="BackgroundImageFix"/>
<feColorMatrix in="SourceAlpha" type="matrix" values="0 0 0 0 0 0 0 0 0 0 0 0 0 0 0 0 0 0 127 0" result="hardAlpha"/>
<feOffset dx="4" dy="4"/>
<feComposite in2="hardAlpha" operator="out"/>
<feColorMatrix type="matrix" values="0 0 0 0 0 0 0 0 0 0 0 0 0 0 0 0 0 0 0.25 0"/>
<feBlend mode="normal" in2="BackgroundImageFix" result="effect1_dropShadow_781_2"/>
<feBlend mode="normal" in="SourceGraphic" in2="effect1_dropShadow_781_2" result="shape"/>
</filter>
<clipPath id="clip0_781_2">
<rect width="256" height="256" fill="white"/>
</clipPath>
</defs>
</svg>
