<?xml version="1.0" encoding="UTF-8" standalone="no"?>
<svg
   width="180"
   height="35"
   version="1.0"
   viewBox="0 0 515.66 100.54"
   id="svg7"
   sodipodi:docname="webmin2.svg"
   inkscape:version="1.3.2 (091e20e, 2023-11-25)"
   xmlns:inkscape="http://www.inkscape.org/namespaces/inkscape"
   xmlns:sodipodi="http://sodipodi.sourceforge.net/DTD/sodipodi-0.dtd"
   xmlns="http://www.w3.org/2000/svg"
   xmlns:svg="http://www.w3.org/2000/svg">
  <defs
     id="defs7" />
  <sodipodi:namedview
     id="namedview7"
     pagecolor="#ffffff"
     bordercolor="#999999"
     borderopacity="1"
     inkscape:showpageshadow="2"
     inkscape:pageopacity="0"
     inkscape:pagecheckerboard="0"
     inkscape:deskcolor="#d1d1d1"
     inkscape:zoom="1.3472222"
     inkscape:cx="83.876289"
     inkscape:cy="76.824742"
     inkscape:window-width="1232"
     inkscape:window-height="661"
     inkscape:window-x="314"
     inkscape:window-y="218"
     inkscape:window-maximized="0"
     inkscape:current-layer="svg7" />
  <g
     transform="translate(-14.721 -55.382)"
     id="g7"
     style="fill:#3164b4;fill-opacity:1;stroke:#005ebd;stroke-opacity:1">
    <g
       transform="matrix(.9803 0 0 1.0201 1.7678 -7.0795)"
       stroke-width="1.0297"
       aria-label="webmin"
       id="g6"
       style="fill:#3164b4;fill-opacity:1;stroke:#005ebd;stroke-opacity:1">
      <path
         d="m145.24 95.55v20.66c0 3.7563.59311 7.1173 1.8782 10.083s3.0644 5.5356 5.338 7.6115c2.1747 2.1747 4.7448 3.7563 7.7104 4.9426 2.8667 1.1862 5.931 1.7793 9.292 1.7793 3.5586.0 6.8207-.5931 9.7862-1.977s5.6345-3.2621 8.0069-5.8322c2.1747 2.4713 4.8437 4.3494 8.0069 5.7334 3.0644 1.3839 6.3264 2.0759 9.7862 2.0759 3.1632.0 6.3264-.5931 9.292-1.7793 2.9655-1.1862 5.5356-2.7678 7.7104-4.9426s3.954-4.7448 5.338-7.7104c1.2851-2.9655 1.977-6.3265 1.977-9.9839v-20.66c0-1.6805-.69196-3.1632-1.8782-4.4483-1.2851-1.1862-2.7678-1.8782-4.4483-1.8782-1.7793.0-3.2621.69196-4.4483 1.8782-1.2851 1.2851-1.8782 2.7678-1.8782 4.4483v21.747c0 3.7563-1.1862 6.623-3.3609 8.6989-2.2736 2.0759-5.0414 3.0644-8.3035 3.0644-1.5816.0-3.0644-.19771-4.4483-.79081-1.3839-.49426-2.669-1.2851-3.6575-2.2736s-1.8782-2.2736-2.4713-3.7563c-.59311-1.3839-.88966-3.0644-.88966-4.9425v-21.747c0-1.6805-.69196-3.1632-1.8782-4.4483-1.2851-1.1862-2.7678-1.8782-4.4483-1.8782-1.7793.0-3.2621.69196-4.4483 1.8782-1.1862 1.2851-1.7793 2.7678-1.7793 4.4483v21.747c0 1.8782-.39541 3.5586-.98851 4.9425-.59311 1.4828-1.4828 2.7678-2.4713 3.7563-.98851.98851-2.2736 1.7793-3.6575 2.2736-1.3839.5931-2.8667.79081-4.4483.79081-3.3609.0-6.2276-.98851-8.4023-3.1632-2.1747-2.0759-3.2621-4.9426-3.2621-8.6v-21.747c0-1.6805-.69196-3.1632-1.8782-4.4483-1.2851-1.1862-2.7678-1.8782-4.4483-1.8782-1.7793.0-3.2621.69196-4.4483 1.8782-1.1862 1.2851-1.7793 2.7678-1.7793 4.4483z"
         id="path1"
         style="fill:#3164b4;fill-opacity:1;stroke:#005ebd;stroke-opacity:1" />
      <path
         d="m252.89 119.97h29.556c2.0759.0 3.8552-.69195 5.2391-2.0759 1.3839-1.3839 2.1747-3.1632 2.1747-5.3379.0-2.8667-.69195-5.7334-1.8782-8.5012-1.2851-2.7678-2.9655-5.2391-5.1402-7.4138s-4.8437-3.8552-7.8092-5.2391-6.2276-2.0759-9.6874-2.0759c-3.5586.0-6.8207.69196-9.8851 1.977-3.1632 1.3839-5.8322 3.1632-8.1058 5.4368-2.3724 2.3724-4.1517 5.0414-5.5356 8.1058-1.3839 3.1632-2.0759 6.4253-2.0759 9.9839s.5931 6.9196 1.977 10.083c1.2851 3.1632 3.0644 5.8322 5.4368 8.2046s5.1402 4.1517 8.3035 5.5356c3.1632 1.3839 6.5242 1.977 10.28 1.977 2.3724.0 4.4483-.0988 6.2276-.3954 1.7793-.1977 3.2621-.59311 4.646-.98851 1.2851-.3954 2.3724-.79081 3.1632-1.1862.79081-.39541 1.4828-.79081 1.977-1.0874.88966-.59311 1.6805-1.3839 2.3724-2.2736.59311-.88966.98851-1.977.98851-3.3609.0-1.5816-.5931-2.8667-1.6805-3.954-1.1862-.98851-2.5701-1.5816-4.1517-1.5816s-3.0644.49425-4.5471 1.4828c-.79081.59311-1.8782.98851-3.3609 1.3839-1.4828.39541-3.3609.59311-5.6345.59311-1.4828.0-2.9655-.1977-4.3494-.69196-1.3839-.3954-2.669-1.0874-3.8552-1.8782s-2.1747-1.7793-2.9655-2.9655c-.88966-1.1862-1.4828-2.3724-1.6805-3.7563zm12.455-19.474c1.5816.0 3.1632.29655 4.646.88965 1.4828.59311 2.7678 1.2851 3.8552 2.1747 1.0874.88966 1.977 1.8782 2.669 3.0644.69196 1.1862 1.1862 2.2736 1.3839 3.3609h-25.009c.1977-1.1862.69195-2.2736 1.4828-3.4598.69196-1.0874 1.5816-2.0759 2.7678-2.9655 1.0874-.88965 2.3724-1.5816 3.7563-2.1747s2.8667-.88965 4.4483-.88965z"
         id="path2"
         style="fill:#3164b4;fill-opacity:1;stroke:#005ebd;stroke-opacity:1" />
      <path
         d="m300.24 71.826V134.3c0 1.7793.5931 3.2621 1.8782 4.4483 1.1862 1.2851 2.669 1.8782 4.4483 1.8782.7908.0 1.5816-.0988 2.3724-.49425.69195-.29656 1.2851-.69196 1.8782-1.2851.49426-.49426.88966-1.0874 1.1862-1.6805.29656-.59311.49426-1.2851.49426-1.8782 1.2851 1.1862 3.0644 2.3724 5.4368 3.5586 2.2736 1.1862 5.1402 1.7793 8.6989 1.7793 3.3609.0 6.623-.5931 9.6874-1.977s5.7334-3.1632 8.0069-5.5356c2.1747-2.2736 3.954-5.0414 5.338-8.2046 1.2851-3.1632 1.977-6.5242 1.977-10.083.0-3.5586-.69195-6.8207-2.0759-9.9839-1.3839-3.1632-3.1632-5.8322-5.5356-8.2046-2.3724-2.2736-5.0414-4.0529-8.1058-5.4368-3.0644-1.2851-6.3265-1.977-9.6874-1.977-3.2621.0-6.0299.5931-8.3035 1.7793s-3.954 2.3724-5.0414 3.4598v-22.637c0-1.6805-.69195-3.1632-1.8782-4.4483-1.2851-1.1862-2.7678-1.8782-4.4483-1.8782-1.7793.0-3.2621.69196-4.4483 1.8782-1.2851 1.2851-1.8782 2.7678-1.8782 4.4483zm11.664 43c0-1.977.29656-3.7563.98851-5.5356.69196-1.6805 1.6805-3.1632 2.8667-4.4483 1.1862-1.1862 2.669-2.1747 4.3494-2.9655 1.6805-.69196 3.5586-1.0874 5.5356-1.0874s3.7563.3954 5.4368 1.1862c1.6805.79081 3.1632 1.7793 4.4483 3.0644 1.1862 1.2851 2.1747 2.7678 2.9655 4.4483.69195 1.6805 1.0874 3.4598 1.0874 5.338.0 1.977-.39541 3.7563-1.0874 5.4368-.69196 1.7793-1.6805 3.2621-2.8667 4.5471-1.2851 1.3839-2.7678 2.3724-4.4483 3.1632-1.7793.7908-3.5586 1.1862-5.5356 1.1862s-3.8552-.29656-5.5356-1.0874c-1.6805-.69196-3.1632-1.6805-4.3494-2.9655s-2.1747-2.7678-2.8667-4.5471c-.69195-1.7793-.98851-3.6575-.98851-5.7334z"
         id="path3"
         style="fill:#3164b4;fill-opacity:1;stroke:#005ebd;stroke-opacity:1" />
      <path
         d="m446.14 134.3v-20.66c0-3.5586-.69196-6.9196-1.977-9.9839-1.2851-2.9655-3.0644-5.5357-5.2391-7.7104-2.2736-2.0759-4.8437-3.7563-7.8092-4.9425s-6.0299-1.7793-9.1931-1.7793c-3.5586.0-6.9196.69196-9.8851 2.0759-2.9655 1.3839-5.6345 3.2621-7.9081 5.7334-2.2736-2.3724-4.9426-4.3494-8.0069-5.7334-3.1632-1.3839-6.4253-2.0759-9.7862-2.0759s-6.4253.5931-9.3908 1.7793-5.5356 2.8667-7.7104 5.0414-3.954 4.7448-5.2391 7.7104c-1.3839 2.9655-1.977 6.3264-1.977 9.8851v20.66c0 1.7793.5931 3.2621 1.8782 4.4483 1.1862 1.2851 2.669 1.8782 4.4483 1.8782 1.6805.0 3.1632-.5931 4.4483-1.8782 1.1862-1.1862 1.8782-2.669 1.8782-4.4483v-21.747c0-3.6575 1.0874-6.5242 3.3609-8.6 2.1747-2.0759 4.9426-3.1632 8.3035-3.1632 1.5816.0 3.0644.29655 4.4483.79081 1.3839.5931 2.5701 1.3839 3.5586 2.3724s1.8782 2.2736 2.4713 3.6575c.59311 1.4828.98851 3.1632.98851 4.9426v21.747c0 1.7793.59311 3.2621 1.8782 4.4483 1.1862 1.2851 2.669 1.8782 4.4483 1.8782 1.6805.0 3.1632-.5931 4.3494-1.8782 1.1862-1.1862 1.8782-2.669 1.8782-4.4483v-21.747c0-1.7793.29656-3.4598.88966-4.9426.59311-1.3839 1.4828-2.669 2.4713-3.6575.9885-.98851 2.2736-1.7793 3.6575-2.3724 1.3839-.49426 2.9655-.79081 4.5471-.79081 3.3609.0 6.1288 1.0874 8.3035 3.1632 2.1747 2.1747 3.3609 5.0414 3.3609 8.6v21.747c0 1.7793.5931 3.2621 1.8782 4.4483 1.1862 1.2851 2.669 1.8782 4.4483 1.8782 1.6805.0 3.1632-.5931 4.3494-1.8782 1.1862-1.1862 1.8782-2.669 1.8782-4.4483z"
         id="path4"
         style="fill:#3164b4;fill-opacity:1;stroke:#005ebd;stroke-opacity:1" />
      <path
         d="m473.03 134.3V96.539c0-1.6805-.69195-3.1632-1.8782-4.4483-1.2851-1.1862-2.7678-1.8782-4.4483-1.8782-1.7793.0-3.2621.69196-4.4483 1.8782-1.2851 1.2851-1.8782 2.7678-1.8782 4.4483V134.3c0 1.7793.5931 3.2621 1.8782 4.4483 1.1862 1.2851 2.669 1.8782 4.4483 1.8782 1.6805.0 3.1632-.5931 4.4483-1.8782 1.1862-1.1862 1.8782-2.669 1.8782-4.4483zm-14.037-57.136c0 2.1747.69196 3.954 2.2736 5.4368 1.4828 1.5816 3.2621 2.2736 5.4368 2.2736 2.0759.0 3.8552-.69196 5.4368-2.2736 1.4828-1.4828 2.2736-3.2621 2.2736-5.4368.0-2.0759-.79081-3.8552-2.2736-5.4368-1.5816-1.4828-3.3609-2.2736-5.4368-2.2736-2.1747.0-3.954.79081-5.4368 2.2736-1.5816 1.5816-2.2736 3.3609-2.2736 5.4368z"
         id="path5"
         style="fill:#3164b4;fill-opacity:1;stroke:#005ebd;stroke-opacity:1" />
      <path
         d="m526.6 114.83v19.474c0 1.7793.59311 3.2621 1.8782 4.4483 1.1862 1.2851 2.669 1.8782 4.4483 1.8782 1.6805.0 3.1632-.5931 4.4483-1.8782 1.1862-1.1862 1.8782-2.669 1.8782-4.4483V114.83c0-3.5586-.69196-6.8207-2.0759-9.9839-1.3839-3.0644-3.1632-5.7334-5.5356-8.1058s-5.1402-4.1517-8.3035-5.5356c-3.1632-1.2851-6.5242-1.977-10.083-1.977-3.6575.0-7.0184.69196-10.182 1.977-3.1632 1.3839-5.9311 3.1632-8.3035 5.4368-2.3724 2.3724-4.1517 5.0414-5.5356 8.2046s-1.977 6.4253-1.977 9.9839v19.474c0 1.7793.59311 3.2621 1.8782 4.4483 1.1862 1.2851 2.669 1.8782 4.4483 1.8782 1.6805.0 3.1632-.5931 4.4483-1.8782 1.1862-1.1862 1.8782-2.669 1.8782-4.4483V114.83c0-1.8782.29655-3.6575.98851-5.338.5931-1.6805 1.5816-3.1632 2.7678-4.4483s2.5701-2.2736 4.1517-3.0644 3.4598-1.1862 5.4368-1.1862 3.7563.3954 5.338 1.1862c1.5816.79081 3.0644 1.7793 4.2506 3.0644s2.0759 2.7678 2.7678 4.4483c.59311 1.6805.98851 3.4598.98851 5.338z"
         id="path6"
         style="fill:#3164b4;fill-opacity:1;stroke:#005ebd;stroke-opacity:1" />
    </g>
    <path
       d="m89.712 155.26c-1.9595-.19682-3.8581-.75152-5.7044-1.6666-1.1733-.58155-1.6331-.84822-10.072-5.8415l-5.4628-3.2324-7.3547 4.1067c-7.8541 4.3855-8.6069 4.783-9.9302 5.2438-1.6577.5772-2.5891.7383-4.6412.80273-1.6804.0528-2.124.0282-3.3287-.18456-3.1105-.54929-5.9997-1.7248-8.3579-3.4007-1.1896-.84536-3.2742-3.0493-4.0841-4.3177-2.2185-3.4747-3.2734-7.4041-3.0949-11.528.03596-.83071.09689-1.6983.1354-1.9279.05815-.34669.03567-.42985-.13224-.48988-.82586-.29521-2.4336-1.0671-3.3797-1.6226-1.4917-.87585-2.4031-1.5918-3.755-2.9498-4.1931-4.2119-5.9524-9.5734-5.0119-15.274.50928-3.0867 1.6192-5.8788 3.2467-8.1672.78341-1.1016 2.4542-2.8002 3.5605-3.6198.80231-.5944 8.6121-5.4194 13.253-8.1877l1.8684-1.1146-.07537-8.9504c-.08215-9.7553-.0596-10.335.48759-12.54.78222-3.1512 2.3563-5.8541 4.9154-8.4406 3.0226-3.0548 6.045-4.7237 9.7448-5.3805 1.8737-.33265 5.1287-.25586 7.0092.16538 2.9691.66508 5.8463 1.9977 8.4005 3.8908l.72355.53628 1.0549-.81808c2.8403-2.2027 5.6171-3.4674 9.0308-4.1129 1.7099-.32334 5.0788-.35381 6.5903-.05964 3.7692.7336 6.9142 2.5 9.7786 5.4922 2.87 2.998 4.4944 6.1791 5.1753 10.135.23853 1.3857.24695 3.3304.0545 12.561-.094 4.5059-.11484 7.3979-.0538 7.4594.17782.17933 3.2269 1.9865 8.1583 4.8354 7.4248 4.2893 7.8433 4.5704 9.7135 6.5233 2.398 2.504 3.9711 5.6684 4.7011 9.4567.33021 1.7135.36039 5.0233.059 6.475-.62284 3.0005-1.8314 5.4972-3.9007 8.058-2.0406 2.5254-5.1175 4.7162-8.261 5.882l-.96961.3596-.0196 2.8984c-.0216 3.1813-.12995 3.9984-.83545 6.2973-1.097 3.5746-3.4712 6.9972-6.2841 9.0591-1.2498.91615-3.424 2.023-5.0624 2.5773-2.7677.93628-5.3471 1.267-7.8896 1.0117zm4.4243-11.784c1.8838-.65915 3.1037-1.9053 3.9232-4.0075.36505-.93646.45026-2.4135.19863-3.4435-.63313-2.5918-1.7897-3.5225-11.158-8.9796-8.6264-5.0247-8.9097-5.2049-9.9169-6.3069-1.0737-1.1748-1.5004-2.2389-1.5004-3.7416.0-1.1466.29948-2.1182.97734-3.1709.66523-1.0331 1.2212-1.5471 2.2001-2.0339 1.0358-.51516 2.0735-.68707 3.1505-.52191 1.7548.2691 1.7616.27257 11.229 5.7286 3.8803 2.2362 7.4266 4.2313 7.8807 4.4334 1.4624.65106 2.977.98949 4.4522.99482 1.2374.004 1.3238-.0107 2.0263-.3563 1.3864-.68208 2.9425-2.5724 3.4216-4.1564.45358-1.4997.38272-3.2049-.18509-4.4546-.50996-1.1223-1.7244-2.256-3.9465-3.684-.91361-.58713-8.2605-4.9075-13.003-7.6464-3.8904-2.2469-4.5416-2.7812-5.2334-4.2944-.73202-1.6011-.72627-1.4932-.61639-11.578.05411-4.9635.06285-9.7545.01952-10.647-.14089-2.8964-.55697-4.1774-1.7641-5.4313-2.3891-2.4816-6.9286-2.6171-9.1926-.27444-1.0482 1.0846-1.661 2.4019-2.0818 4.4751-.20117.99121-.22257 1.7228-.31739 10.852-.07818 7.5248-.13703 10.009-.25447 10.739-.40717 2.5307-2.153 4.4792-4.4706 4.9896-3.5303.77745-6.6774-1.3822-7.2775-4.9942-.13589-.81799-.14564-2.2161-.06825-9.7882.04967-4.8587.05326-9.5909.008-10.516-.14464-2.96-.55091-4.222-1.7651-5.4832-2.3891-2.4816-6.9286-2.6171-9.1926-.27444-1.0464 1.0827-1.6566 2.3928-2.0844 4.4751-.20622 1.0036-.22294 1.6238-.30005 11.132-.05456 6.7253-.12152 10.243-.20168 10.593-.47513 2.0748-1.5588 3.5921-3.3293 4.6616-.39842.24068-2.0573 1.2434-3.6864 2.2283-1.6291.98488-4.61 2.7604-6.6242 3.9457-5.303 3.1206-6.6801 4.049-7.6667 5.1688-.84283.95666-1.2522 2.1578-1.2541 3.6794-.0023 1.7115.74744 3.4202 2.1124 4.8156 1.6443 1.6809 3.5857 1.9079 6.9161.80846 1.3384-.44183 2.4913-1.0512 6.7857-3.5866 4.2636-2.5172 4.9789-2.9313 8.2469-4.7734 2.4491-1.3805 3.1867-1.6922 4.4547-1.8826 2.2371-.33596 4.1226.53769 5.4128 2.5081.77996 1.1911 1.0431 2.1194.98584 3.4784-.03814.90595-.09185 1.1376-.44039 1.8999-.41817.91465-1.2796 1.9679-2.0725 2.5341-.66473.47466-2.2635 1.4095-7.7551 4.5344-6.1279 3.487-7.4951 4.303-9.1015 5.432-1.9674 1.3828-2.7289 2.3299-3.181 3.9563-.28103 1.0111-.17979 2.803.2091 3.7006.6296 1.4533 2.0366 2.962 3.3488 3.5911.71026.3405 1.7097.60438 2.2891.60438 1.1058.0 3.2263-.65177 4.8198-1.4814 1.1254-.58593 5.4662-3.0152 10.448-5.847 6.2588-3.5578 6.4792-3.6552 8.2937-3.6665 1.8057-.0112 2.9141.38888 5.8164 2.0995 13.708 8.08 15.249 8.9216 16.891 9.2272.9198.17114 2.185.0639 3.1242-.26468z"
       stroke-linecap="round"
       stroke-linejoin="round"
       stroke-opacity="0"
       stroke-width="1.1646"
       style="paint-order:stroke fill markers;fill:#3164b4;fill-opacity:1;stroke:#005ebd;stroke-opacity:1"
       id="path7" />
    <text
       style="white-space:pre;shape-inside:url(#rect888);display:inline;fill:#3164b4;fill-opacity:1;stroke:#005ebd;stroke-opacity:1"
       id="text7"
       xml:space="preserve" />
  </g>
</svg>
