<?xml version="1.0" encoding="UTF-8" standalone="no"?>
<svg
   version="1.1"
   width="256"
   height="256"
   viewBox="0 0 256 256"
   xml:space="preserve"
   id="svg8"
   sodipodi:docname="youtube.svg"
   inkscape:version="1.3.2 (091e20e, 2023-11-25)"
   xmlns:inkscape="http://www.inkscape.org/namespaces/inkscape"
   xmlns:sodipodi="http://sodipodi.sourceforge.net/DTD/sodipodi-0.dtd"
   xmlns="http://www.w3.org/2000/svg"
   xmlns:svg="http://www.w3.org/2000/svg"><sodipodi:namedview
   id="namedview8"
   pagecolor="#ffffff"
   bordercolor="#999999"
   borderopacity="1"
   inkscape:showpageshadow="2"
   inkscape:pageopacity="0"
   inkscape:pagecheckerboard="0"
   inkscape:deskcolor="#d1d1d1"
   inkscape:zoom="3.1367188"
   inkscape:cx="127.8406"
   inkscape:cy="128"
   inkscape:window-width="1848"
   inkscape:window-height="1007"
   inkscape:window-x="36"
   inkscape:window-y="0"
   inkscape:window-maximized="1"
   inkscape:current-layer="svg8" />

<defs
   id="defs1">

	
	
	
	
	
	
	
	
	
	
</defs>
<path
   d="m 246.329,68.337983 c -2.84372,-10.63866 -11.22314,-19.01808 -21.8618,-21.8618 -19.28222,-5.16759 -96.61061,-5.16759 -96.61061,-5.16759 0,0 -77.328387,0 -96.610607,5.16759 -10.63866,2.84372 -19.01808,11.22314 -21.8617996,21.8618 -5.16759,19.28222 -5.16759,59.518607 -5.16759,59.518607 0,0 0,40.23639 5.16759,59.51861 2.8437196,10.63866 11.2231396,19.01808 21.8617996,21.8618 19.28222,5.16759 96.610607,5.16759 96.610607,5.16759 0,0 77.32839,0 96.61061,-5.16759 10.63866,-2.84372 19.01808,-11.22314 21.8618,-21.8618 5.16759,-19.28222 5.16759,-59.51861 5.16759,-59.51861 0,0 0,-40.236387 -5.16759,-59.518607 z"
   style="fill:#e87676;fill-rule:nonzero;stroke:none;stroke-width:2.81;stroke-linecap:butt;stroke-linejoin:miter;stroke-miterlimit:10;stroke-dasharray:none;fill-opacity:1"
   stroke-linecap="round"
   id="path1" /><path
   d="m 246.329,68.337983 c -2.84372,-10.63866 -11.22314,-19.01808 -21.8618,-21.8618 -1.39095,-0.37373 -3.11348,-0.71655 -5.06081,-1.03689 3.98739,20.4849 3.9902,54.3173 3.9902,54.3173 0,0 0,40.236387 -5.16759,59.518607 -2.84372,10.63866 -11.22314,19.01808 -21.8618,21.8618 -19.28222,5.16759 -96.610607,5.16759 -96.610607,5.16759 0,0 -66.5408,-0.003 -91.5497996,-4.1307 0.35968,1.85179 0.75027,3.60242 1.17739,5.20131 2.8437196,10.63866 11.2231396,19.01808 21.8617996,21.8618 19.28222,5.16759 96.610607,5.16759 96.610607,5.16759 0,0 77.32839,0 96.61061,-5.16759 10.63866,-2.84372 19.01808,-11.22314 21.8618,-21.8618 5.16759,-19.28222 5.16759,-59.51861 5.16759,-59.51861 0,0 0,-40.236387 -5.16759,-59.518607 z"
   style="fill:#d16565;fill-rule:nonzero;stroke:none;stroke-width:2.81;stroke-linecap:butt;stroke-linejoin:miter;stroke-miterlimit:10;stroke-dasharray:none;fill-opacity:1"
   stroke-linecap="round"
   id="path2" /><polygon
   points="36.2,31.8 36.2,58.2 59.06,45 "
   style="fill:#ffffff;fill-rule:nonzero;stroke:none;stroke-width:1;stroke-linecap:butt;stroke-linejoin:miter;stroke-miterlimit:10;stroke-dasharray:none"
   transform="matrix(2.81,0,0,2.81,1.4065934,1.4065934)"
   id="polygon2" /><polygon
   points="36.2,58.2 59.06,45 52.73,41.34 36.2,50.89 "
   style="fill:#f0f0f0;fill-rule:nonzero;stroke:none;stroke-width:1;stroke-linecap:butt;stroke-linejoin:miter;stroke-miterlimit:10;stroke-dasharray:none"
   transform="matrix(2.81,0,0,2.81,1.4065934,1.4065934)"
   id="polygon3" /><path
   d="m 103.12859,167.75859 c -0.48613,0 -0.96945,-0.12645 -1.405,-0.37654 -0.8711,-0.50299 -1.405,-1.43029 -1.405,-2.43346 V 90.764593 c 0,-1.00317 0.5339,-1.93328 1.405,-2.43346 0.8711,-0.50018 1.9389,-0.50299 2.81,0 l 64.2366,37.091997 c 0.8711,0.50299 1.405,1.43029 1.405,2.43346 0,1.00317 -0.5339,1.93328 -1.405,2.43346 l -64.2366,37.092 c -0.43555,0.25009 -0.91887,0.37654 -1.405,0.37654 z m 2.81,-72.127077 V 160.08167 L 161.748,127.85659 Z"
   style="fill:#000000;fill-rule:nonzero;stroke:none;stroke-width:2.81;stroke-linecap:butt;stroke-linejoin:miter;stroke-miterlimit:10;stroke-dasharray:none"
   stroke-linecap="round"
   id="path3" /><path
   d="m 109.31621,217.05442 c -0.014,0 -0.0281,0 -0.0421,0 -28.782827,-0.41026 -65.807387,-1.63261 -78.755867,-5.10296 -11.60811,-3.10224 -20.7462296,-12.24036 -23.8484696,-23.85128 -5.20412,-19.4171 -5.26313,-58.58569 -5.26313,-60.24359 0,-1.55112 1.25888,-2.81 2.81,-2.81 1.55112,0 2.81,1.25888 2.81,2.81 0,0.39902 0.05901,40.09027 5.0720496,58.79082 2.5852,9.67483 10.2003,17.28993 19.87232,19.87513 13.04683,3.49564 54.08407,4.57749 77.384587,4.91188 1.55112,0.0225 2.79314,1.29822 2.77066,2.85215 -0.0225,1.53707 -1.27574,2.76785 -2.81,2.76785 z"
   style="fill:#000000;fill-rule:nonzero;stroke:none;stroke-width:2.81;stroke-linecap:butt;stroke-linejoin:miter;stroke-miterlimit:10;stroke-dasharray:none"
   stroke-linecap="round"
   id="path4" /><path
   d="m 132.34697,217.21459 h -8.98076 c -1.55112,0 -2.81,-1.25607 -2.81,-2.81 0,-1.55393 1.25888,-2.81 2.81,-2.81 h 8.98076 c 1.55393,0 2.81,1.25607 2.81,2.81 0,1.55393 -1.25888,2.81 -2.81,2.81 z"
   style="fill:#000000;fill-rule:nonzero;stroke:none;stroke-width:2.81;stroke-linecap:butt;stroke-linejoin:miter;stroke-miterlimit:10;stroke-dasharray:none"
   stroke-linecap="round"
   id="path5" /><path
   d="m 4.2165934,130.82676 c -1.55112,0 -2.81,-1.25888 -2.81,-2.81 0,-1.6579 0.05901,-40.829297 5.26594,-60.243587 3.10224,-11.60811 12.2403596,-20.74623 23.8484696,-23.85128 12.94005,-3.46754 49.97023,-4.68989 78.755867,-5.10296 1.5736,-0.02529 2.82686,1.21954 2.84934,2.77066 0.0225,1.55112 -1.21954,2.82686 -2.77066,2.84934 -23.303327,0.33439 -64.343377,1.41905 -77.381777,4.91469 -9.67483,2.5852 -17.28993,10.2003 -19.87232,19.87513 -5.0158496,18.70336 -5.0748596,58.388987 -5.0748596,58.788007 0,1.55112 -1.25888,2.81 -2.81,2.81 z"
   style="fill:#000000;fill-rule:nonzero;stroke:none;stroke-width:2.81;stroke-linecap:butt;stroke-linejoin:miter;stroke-miterlimit:10;stroke-dasharray:none"
   stroke-linecap="round"
   id="path6" /><path
   d="m 146.39697,217.05442 c -1.53426,0 -2.78752,-1.23078 -2.81,-2.76785 -0.0225,-1.55393 1.21954,-2.82967 2.76785,-2.85215 23.30333,-0.33439 64.33776,-1.41624 77.38459,-4.91188 9.67202,-2.5852 17.28712,-10.2003 19.87513,-19.87513 4.90345,-18.30715 5.06643,-56.68613 5.07205,-58.71214 -0.006,-2.00915 -0.1686,-40.410607 -5.07205,-58.712137 -2.58801,-9.67483 -10.20311,-17.28993 -19.87232,-19.87513 -13.04121,-3.49564 -54.08126,-4.5803 -77.3874,-4.91469 -1.55112,-0.02248 -2.79033,-1.29822 -2.76785,-2.84934 0.0225,-1.55393 1.27574,-2.74256 2.85215,-2.77066 28.78283,0.41307 65.81582,1.63542 78.75587,5.10577 11.6053,3.10224 20.74623,12.24036 23.84847,23.85128 5.07486,18.93097 5.25751,56.652407 5.26313,60.052507 0,0.0112 0,0.0225 0,0.0337 0,0.0197 0,0.0478 0,0.0787 0,0.0309 0,0.059 0,0.0787 0,0.0112 0,0.0225 0,0.0337 -0.006,3.4001 -0.18827,41.11873 -5.26313,60.05251 -3.10224,11.61092 -12.24317,20.74904 -23.85128,23.84847 -12.94567,3.47035 -49.97304,4.6927 -78.75306,5.10296 -0.0169,0.003 -0.0281,0.003 -0.0421,0.003 z"
   style="fill:#000000;fill-rule:nonzero;stroke:none;stroke-width:2.81;stroke-linecap:butt;stroke-linejoin:miter;stroke-miterlimit:10;stroke-dasharray:none"
   stroke-linecap="round"
   id="path7" /><path
   d="m 132.34697,44.275953 h -8.98076 c -1.55112,0 -2.81,-1.25888 -2.81,-2.81 0,-1.55112 1.25888,-2.81 2.81,-2.81 h 8.98076 c 1.55393,0 2.81,1.25888 2.81,2.81 0,1.55112 -1.25888,2.81 -2.81,2.81 z"
   style="fill:#000000;fill-rule:nonzero;stroke:none;stroke-width:2.81;stroke-linecap:butt;stroke-linejoin:miter;stroke-miterlimit:10;stroke-dasharray:none"
   stroke-linecap="round"
   id="path8" />
</svg>
