<svg width="286" height="286" viewBox="0 0 286 286" fill="none" xmlns="http://www.w3.org/2000/svg">
<g filter="url(#filter0_d_781_10)">
<path d="M121.951 231.216C79.8282 230.547 49.6086 228.678 39.7825 226.135C34.5063 224.77 30.4553 222.512 26.8417 218.921C22.7779 214.883 20.4922 210.692 19.0698 204.673C16.576 194.118 14.9789 177.186 14.2665 153.747C13.4245 126.045 16.0625 90.7639 19.884 78.6181C22.5395 70.1784 29.3761 63.3499 37.8453 60.6784C49.0744 57.1363 88.1777 55.0045 142.007 55C193.052 54.9958 232.25 56.8949 245.476 60.0133C255.759 62.4378 263.359 69.7598 266.193 79.9729C268.31 87.6044 270.048 102.289 270.96 120.247C272.637 153.299 270.236 193.751 265.768 207.692C262.802 216.949 255.436 223.762 245.832 226.132C236.475 228.442 212.635 230.121 177.231 230.963C162.196 231.321 136.064 231.441 121.951 231.216ZM118.606 189.123C120.543 188.193 189.046 148.61 190.067 147.831C190.498 147.502 191.14 146.654 191.492 145.946C192.768 143.386 192.076 140.044 189.917 138.341C189.137 137.726 121.897 98.8192 118.765 97.1706C115.367 95.3817 110.876 97.2426 109.872 100.855C109.702 101.47 109.617 115.413 109.616 143.173C109.615 189.673 109.464 186.001 111.46 187.997C113.382 189.919 116.068 190.343 118.606 189.123Z" fill="#BF9770"/>
<path d="M38.6552 230.492C44.0519 231.888 54.4895 233.005 68.4777 233.87C82.6175 234.744 100.776 235.38 121.879 235.716C136.056 235.941 162.247 235.821 177.338 235.462C195.079 235.04 209.965 234.407 221.616 233.587C233.166 232.773 241.816 231.759 246.911 230.501C257.998 227.765 266.6 219.842 270.053 209.066C272.48 201.494 274.212 187.375 275.16 171.403C276.118 155.267 276.302 136.725 275.454 120.019C274.541 102.039 272.79 86.9203 270.529 78.7697C267.258 66.9807 258.396 58.4362 246.509 55.6334C239.435 53.9657 225.931 52.7029 208.141 51.8409C190.215 50.9724 167.578 50.4979 142.006 50.5C115.042 50.5023 91.7221 51.0371 73.7061 52.0193C55.9221 52.9888 42.7462 54.4139 36.4916 56.3868C26.6278 59.4983 18.6898 67.4204 15.5915 77.2676C13.5069 83.8927 11.8699 96.2255 10.839 110.013C9.79684 123.951 9.34219 139.856 9.76858 153.884C10.4821 177.36 12.0849 194.681 14.6904 205.707C16.29 212.477 18.9625 217.436 23.6698 222.113C27.8892 226.306 32.6622 228.941 38.6552 230.492ZM187.237 144.294C187.121 144.364 186.98 144.448 186.813 144.548C186.268 144.873 185.49 145.332 184.505 145.91C182.539 147.064 179.778 148.674 176.481 150.591C169.89 154.423 161.175 159.47 152.429 164.524C143.683 169.577 134.91 174.635 128.204 178.486C124.851 180.412 122.018 182.034 119.965 183.203C118.937 183.788 118.111 184.256 117.515 184.59C116.977 184.892 116.727 185.027 116.667 185.061C116.651 185.069 116.648 185.071 116.656 185.067C115.758 185.499 115.149 185.322 114.642 184.815C114.581 184.754 114.521 184.696 114.464 184.642C114.415 184.231 114.341 183.454 114.285 182.089C114.108 177.773 114.11 169.374 114.114 152.285C114.115 149.487 114.116 146.457 114.116 143.173C114.117 129.295 114.138 118.881 114.18 111.862C114.202 108.35 114.228 105.703 114.26 103.902C114.276 102.998 114.292 102.33 114.309 101.881C114.31 101.86 114.311 101.84 114.312 101.82C114.45 101.582 114.711 101.324 115.143 101.145C115.727 100.903 116.287 100.951 116.669 101.153C118.13 101.921 135.59 111.982 152.97 122.038C161.617 127.042 170.19 132.013 176.648 135.77C179.878 137.649 182.575 139.223 184.487 140.344C185.444 140.906 186.198 141.35 186.722 141.662C186.933 141.788 187.1 141.888 187.224 141.963C187.568 142.343 187.815 143.237 187.465 143.939C187.456 143.957 187.428 144.009 187.378 144.088C187.334 144.157 187.286 144.228 187.237 144.294ZM114.339 101.351C114.339 101.354 114.337 101.385 114.331 101.437C114.335 101.374 114.338 101.348 114.339 101.351Z" stroke="#443B31" stroke-width="9" stroke-linecap="round" stroke-linejoin="round"/>
</g>
<defs>
<filter id="filter0_d_781_10" x="5.10938" y="46" width="279.387" height="198.33" filterUnits="userSpaceOnUse" color-interpolation-filters="sRGB">
<feFlood flood-opacity="0" result="BackgroundImageFix"/>
<feColorMatrix in="SourceAlpha" type="matrix" values="0 0 0 0 0 0 0 0 0 0 0 0 0 0 0 0 0 0 127 0" result="hardAlpha"/>
<feOffset dx="4" dy="4"/>
<feComposite in2="hardAlpha" operator="out"/>
<feColorMatrix type="matrix" values="0 0 0 0 0 0 0 0 0 0 0 0 0 0 0 0 0 0 0.25 0"/>
<feBlend mode="normal" in2="BackgroundImageFix" result="effect1_dropShadow_781_10"/>
<feBlend mode="normal" in="SourceGraphic" in2="effect1_dropShadow_781_10" result="shape"/>
</filter>
</defs>
</svg>
