<?xml version="1.0" encoding="UTF-8" standalone="no"?>
<!-- Created with Inkscape (http://www.inkscape.org/) -->

<svg
   width="32.782738mm"
   height="22.282215mm"
   viewBox="0 0 32.782738 22.282215"
   version="1.1"
   id="svg1"
   xml:space="preserve"
   xmlns="http://www.w3.org/2000/svg"
   xmlns:svg="http://www.w3.org/2000/svg"><defs
     id="defs1" /><g
     id="layer1"
     transform="translate(-67.289758,-191.04255)"><path
       style="fill:none;stroke:#bf9770;stroke-width:1.1;stroke-linecap:round;stroke-linejoin:round;stroke-dasharray:none"
       d="m 69.824073,198.04441 10.963943,10.02765 c 1.294338,0.88106 3.005108,1.0122 4.305458,0.29165 l 14.429016,-7.73108"
       id="path1" /><path
       style="fill:none;stroke:#bf9770;stroke-width:2;stroke-linecap:round;stroke-linejoin:round;stroke-dasharray:none"
       d="m 86.269665,206.1169 1.870366,1.81696 0.02676,4.39091"
       id="path13" /><path
       style="fill:none;stroke:#bf9770;stroke-width:2;stroke-linecap:round;stroke-linejoin:round;stroke-dasharray:none"
       d="m 89.928088,204.18581 1.870366,1.81696 0.02676,4.39091"
       id="path13-2" /><path
       style="fill:none;stroke:#bf9770;stroke-width:2;stroke-linecap:round;stroke-linejoin:round;stroke-dasharray:none"
       d="m 93.586511,202.38877 1.870366,1.81696 0.02676,4.39091"
       id="path13-5" /><path
       style="fill:none;stroke:#bf9770;stroke-width:2;stroke-linecap:round;stroke-linejoin:round;stroke-dasharray:none"
       d="m 96.935836,200.53888 1.870366,1.81696 0.02676,4.39091"
       id="path13-9" /><path
       style="fill:none;stroke:#bf9770;stroke-width:2;stroke-linecap:round;stroke-linejoin:round;stroke-dasharray:none"
       d="m 80.038016,205.88988 -2.434932,1.54369 -0.01186,4.04951"
       id="path33" /><path
       style="fill:none;stroke:#bf9770;stroke-width:1.1;stroke-linecap:round;stroke-linejoin:round;stroke-dasharray:none"
       d="m 71.543856,194.33645 9.478718,8.80714 c 1.407059,1.0511 2.40572,1.87973 5.51757,0.0827 l 10.411304,-5.75091"
       id="path37" /><path
       style="fill:none;stroke:#bf9770;stroke-width:2;stroke-linecap:round;stroke-linejoin:round;stroke-dasharray:none"
       d="m 76.719664,202.87764 -2.434932,1.54369 -0.01186,4.04951"
       id="path33-9" /><path
       style="fill:none;stroke:#bf9770;stroke-width:2;stroke-linecap:round;stroke-linejoin:round;stroke-dasharray:none"
       d="m 73.481599,200.14135 -2.434932,1.54369 -0.01186,4.04951"
       id="path33-93" /><path
       style="fill:none;stroke:#bf9770;stroke-width:2;stroke-linecap:round;stroke-linejoin:round;stroke-dasharray:none"
       d="m 70.736547,197.29961 -2.434932,1.54369 -0.01186,4.04951"
       id="path33-6" /><g
       id="g42"
       style="stroke-width:1.3;stroke-dasharray:none"><path
         style="fill:none;stroke:#bf9770;stroke-width:1.3;stroke-linecap:round;stroke-linejoin:round;stroke-dasharray:none"
         d="m 83.100536,202.32104 c -1.183088,-2.39749 -0.606077,-4.5895 -0.464838,-5.77871 l 3.790991,3.69405"
         id="path38" /><path
         style="fill:none;stroke:#bf9770;stroke-width:1.3;stroke-linecap:round;stroke-linejoin:round;stroke-dasharray:none"
         d="m 82.442568,200.17643 2.33817,-1.50055"
         id="path39" /><path
         style="fill:none;stroke:#bf9770;stroke-width:1.3;stroke-linecap:round;stroke-linejoin:round;stroke-dasharray:none"
         d="m 88.127427,199.4257 -3.728392,-3.98537 c 0.844445,-0.61747 1.20642,-0.83053 2.081618,-0.75189 0.136331,0.0122 -0.357335,-0.0154 0,0 0.789449,-0.0542 1.456808,1.06119 1.075821,1.70049 -0.294714,0.52499 -0.685102,0.89311 -1.027254,1.32838 l 1.526654,-0.74584 c 0.982542,-0.27971 1.988589,0.12196 2.44617,0.9117"
         id="path40" /><path
         style="fill:none;stroke:#bf9770;stroke-width:1.3;stroke-linecap:round;stroke-linejoin:round;stroke-dasharray:none"
         d="m 91.745735,197.2305 c -2.141563,-2.83314 -2.09904,-3.06113 -2.567647,-4.19626 l 2.956185,1.13513"
         id="path41" /><path
         style="fill:none;stroke:#bf9770;stroke-width:1.3;stroke-linecap:round;stroke-linejoin:round;stroke-dasharray:none"
         d="m 92.134273,194.16937 0.253937,-2.47691 3.027397,3.43993"
         id="path42" /></g></g></svg>
