<?xml version="1.0" encoding="UTF-8" standalone="no"?>
<svg
   version="1.1"
   width="256"
   height="256"
   viewBox="0 0 256 256"
   xml:space="preserve"
   id="svg1"
   sodipodi:docname="github.svg"
   inkscape:version="1.3 (0e150ed6c4, 2023-07-21)"
   xmlns:inkscape="http://www.inkscape.org/namespaces/inkscape"
   xmlns:sodipodi="http://sodipodi.sourceforge.net/DTD/sodipodi-0.dtd"
   xmlns="http://www.w3.org/2000/svg"
   xmlns:svg="http://www.w3.org/2000/svg"><sodipodi:namedview
   id="namedview1"
   pagecolor="#ffffff"
   bordercolor="#000000"
   borderopacity="0.25"
   inkscape:showpageshadow="2"
   inkscape:pageopacity="0.0"
   inkscape:pagecheckerboard="0"
   inkscape:deskcolor="#d1d1d1"
   inkscape:zoom="1.4142136"
   inkscape:cx="-70.003571"
   inkscape:cy="106.41957"
   inkscape:window-width="1920"
   inkscape:window-height="1017"
   inkscape:window-x="-8"
   inkscape:window-y="-8"
   inkscape:window-maximized="1"
   inkscape:current-layer="svg1" />&#10;&#10;<defs
   id="defs1">&#10;&#10;	&#10;</defs>&#10;<path
   d="m 171.11373,254.31221 h -70.45794 c -6.038687,0 -10.992717,-4.90626 -11.043297,-10.93652 l -0.01967,-2.45594 c -0.03372,-3.98739 -0.07587,-8.7672 -0.1124,-13.87297 -41.85495,6.182 -53.60356,-20.81648 -54.83153,-24.00021 v 0 C 28.247713,186.7851 19.323153,182.1205 19.230423,182.07554 l -0.71093,-0.41588 c -3.1472,-2.14965 -10.5122096,-7.18798 -8.43,-13.77743 1.87989,-5.93472 9.61582,-6.45457 12.79393,-6.43771 l 0.32034,0.014 c 19.2766,1.35161 29.224,19.0237 29.63707,19.77397 10.7904,18.48699 27.29915,16.27833 37.72144,12.32466 1.01441,-5.09172 2.69479,-9.71698 4.95122,-13.69032 -32.43864,-5.47388 -69.77792,-22.21024 -69.77792,-85.157047 0,-17.19158 5.41206,-32.37682 16.1013,-45.17918 -2.36883,-7.587 -5.31652,-23.71921 2.75661,-44.1928696 l 0.97788,-2.48123 2.53743,-0.81209 c 1.63823,-0.52828 16.61272,-4.4117 47.76719,16.0563396 12.684337,-3.28489 26.116137,-4.98213 39.972247,-5.04676 13.90388,0.06182 27.34973,1.75906 40.05374,5.04676 31.11232,-20.4680396 46.07838,-16.5789996 47.71942,-16.0535296 l 2.53181,0.81209 0.98069,2.47561 c 8.08437,20.4624196 5.1423,36.6002496 2.77628,44.1900596 10.67238,12.76864 16.07882,27.95388 16.07882,45.1848 0,62.960857 -37.38143,79.635397 -69.88189,85.044647 4.00706,7.01376 6.20167,16.05072 6.20167,26.1049 0,14.62043 -0.0843,27.33287 -0.1405,35.78816 l -0.0112,1.70848 c -0.0393,6.0415 -4.99337,10.95619 -11.0433,10.95619 z m -70.26124,-11.24 h 70.06454 l 0.008,-1.49773 c 0.0562,-8.43562 0.1405,-21.12277 0.1405,-35.7151 0,-16.37949 -6.40961,-23.69392 -9.16903,-26.07961 l -9.72822,-8.41314 12.7855,-1.42186 c 34.51242,-3.83846 69.79197,-15.78096 69.79197,-75.234937 0,-15.50839 -5.17602,-29.02168 -15.38194,-40.16895 l -2.40817,-2.63297 1.35723,-3.30175 c 1.11838,-2.71446 6.08927,-16.66049 -0.47208,-35.97362 -4.77981,0.12645 -16.99207,2.12155 -37.78045,16.21089 l -2.15246,1.45839 -2.50371,-0.69407 c -12.29937,-3.41134 -25.98126,-5.24627 -39.55637,-5.30809 -13.52734,0.06182 -27.19237,1.89675 -39.469257,5.30809 l -2.50371,0.69688 -2.15246,-1.45839 c -20.71251,-14.02471 -32.92477,-16.06758 -37.84508,-16.1856 -6.53606,19.30751 -1.56517,33.23106 -0.44679,35.94271 l 1.36004,3.29894 -2.40536,2.63578 c -10.22278,11.19223 -15.40723,24.70833 -15.40723,40.17457 0,59.425877 35.20368,71.444247 69.643037,75.364197 l 12.65905,1.44153 -9.59615,8.37942 c -2.53462,2.21147 -7.01657,7.55328 -8.52835,18.44203 l -0.42712,3.08538 -2.840907,1.27012 c -8.47496,3.7935 -37.45449,13.84768 -54.81748,-15.91022 -0.11802,-0.20513 -4.667905,-9.89273 -15.174495,-12.81513 4.14756,2.79033 11.083135,9.3785 17.214555,24.96557 l 0.10959,0.30067 c 0.33158,0.94697 8.98076,24.21096 48.64953,15.58988 l 6.777717,-1.47244 0.0365,6.93508 c 0.0393,7.55047 0.10397,14.85366 0.15174,20.5411 z"
   style="fill:#bf9770;fill-opacity:1;fill-rule:nonzero;stroke:none;stroke-width:2.81;stroke-linecap:butt;stroke-linejoin:miter;stroke-miterlimit:10;stroke-dasharray:none"
   stroke-linecap="round"
   id="path1"
   sodipodi:nodetypes="cscccssccccccccscccccccccccscsccsccccscccscccccccccccccccsccccccccccccccc" />&#10;<path
   style="fill:#c27ba0;fill-opacity:1;stroke:#bf9770;stroke-width:1.74928;stroke-linecap:round;stroke-linejoin:round;paint-order:fill markers stroke"
   d="m 100.98519,236.90134 c -0.0236,-3.38709 -0.12879,-10.09531 -0.23386,-14.90717 l -0.19104,-8.74883 -4.608437,1.00215 c -6.829011,1.48504 -11.016906,2.04057 -16.750879,2.222 -12.330038,0.39015 -21.837313,-2.80041 -28.617326,-9.60374 -2.690653,-2.69991 -3.918737,-4.66341 -6.18129,-9.88286 -4.05676,-9.35848 -8.611303,-15.94785 -14.779946,-21.38315 -1.813339,-1.59777 -1.484651,-1.72781 1.091352,-0.4318 4.768485,2.39908 8.56489,6.16106 13.039196,12.92096 3.702453,5.59376 7.049682,9.37812 10.77832,12.18591 9.665397,7.27837 22.262777,9.10493 35.895029,5.20461 3.270149,-0.93562 9.312273,-3.27891 10.176551,-3.94673 0.19492,-0.15061 0.45428,-1.217 0.57637,-2.36976 0.3567,-3.3679 1.90064,-8.95181 3.24064,-11.72024 1.95323,-4.03535 3.56029,-5.91173 9.49373,-11.08464 3.03215,-2.64352 5.47652,-4.84288 5.43193,-4.88748 -0.0446,-0.0446 -3.93873,-0.52339 -8.65363,-1.06399 -14.414354,-1.65271 -22.411182,-3.2017 -30.515375,-5.91084 -21.414859,-7.15873 -34.356123,-20.96404 -39.96342,-42.63165 -1.822953,-7.04422 -2.715018,-13.89012 -2.999494,-23.018779 -0.39437,-12.655075 1.339517,-21.397488 6.131156,-30.913846 2.418448,-4.803122 4.895477,-8.422594 8.887046,-12.985886 l 2.669609,-3.051987 -1.121197,-2.802343 c -0.616659,-1.541288 -1.495683,-4.377397 -1.953386,-6.30246 -0.77929,-3.27763 -0.832047,-3.965902 -0.829966,-10.827766 0.0021,-6.79933 0.06322,-7.60867 0.84821,-11.225335 0.465293,-2.143727 1.100401,-4.739586 1.411351,-5.768575 l 0.565362,-1.870889 1.318643,-0.09638 c 3.060491,-0.223705 10.777188,2.027967 17.704102,5.16592 4.62747,2.096286 11.314084,5.869597 17.034465,9.612689 l 3.974008,2.600367 4.756808,-1.212602 c 20.107738,-5.125854 41.427438,-6.031787 61.974828,-2.633483 5.33272,0.881969 8.34247,1.528654 13.72146,2.948229 l 3.58747,0.946774 3.74018,-2.451686 c 5.94529,-3.897138 8.38,-5.317102 14.03006,-8.182563 8.05999,-4.087666 15.61321,-6.606834 20.72453,-6.912099 l 1.392,-0.08313 0.7096,2.33169 c 1.1239,3.693026 1.9069,7.913592 2.32268,12.519807 0.6648,7.364976 -0.4346,15.593892 -2.87358,21.508466 -0.50375,1.221607 -0.91591,2.393451 -0.91591,2.6041 0,0.210647 0.99232,1.489278 2.20515,2.841401 8.61352,9.602744 13.41249,20.071469 14.96004,32.63468 0.49511,4.019362 0.22182,17.768706 -0.45534,22.908176 -2.71721,20.62294 -10.6188,35.57879 -23.81118,45.06898 -12.21983,8.79056 -27.25536,13.0963 -54.79392,15.69138 -1.20048,0.11312 -2.35624,0.29697 -2.56835,0.40855 -0.24077,0.12666 1.65809,1.98169 5.05448,4.93783 6.03753,5.25492 7.70688,7.16223 9.48372,10.83561 1.42706,2.95026 2.03438,4.74774 2.92165,8.64717 0.62893,2.76409 0.66263,3.85769 0.77346,25.10678 l 0.11589,22.21681 h -34.94036 -34.94037 z"
   id="path2" /></svg>
