<svg width="1135" height="418" viewBox="0 0 1135 418" fill="none" xmlns="http://www.w3.org/2000/svg">
<g clip-path="url(#clip0_781_55)" filter="url(#filter0_d_781_55)">
<path d="M229.21 397.191H16.2188" stroke="#BF9770" stroke-width="24.4346" stroke-linecap="round" stroke-linejoin="round"/>
<path d="M342.161 26.7822H127.166" stroke="#BF9770" stroke-width="24.4346" stroke-linecap="round" stroke-linejoin="round"/>
<path d="M268.242 397.191L342.143 26.7969" stroke="#BF9770" stroke-width="24.4346" stroke-linecap="round" stroke-linejoin="round"/>
<path d="M16.2188 397.191L90.1199 26.7969" stroke="#BF9770" stroke-width="24.4346" stroke-linecap="round" stroke-linejoin="round"/>
<path d="M395.604 261.128H328.91" stroke="#BF9770" stroke-width="24.4346" stroke-linecap="round" stroke-linejoin="round"/>
<path d="M425.991 397.191L361.516 98.7598" stroke="#BF9770" stroke-width="24.4346" stroke-linecap="round" stroke-linejoin="round"/>
<path d="M178.13 148.917C181.138 148.917 183.577 146.428 183.577 143.358C183.577 140.288 181.138 137.799 178.13 137.799C175.122 137.799 172.684 140.288 172.684 143.358C172.684 146.428 175.122 148.917 178.13 148.917Z" fill="#B7906B"/>
<path d="M124.451 99.2869C129.56 99.2869 133.702 95.4127 133.702 90.6337C133.702 85.8546 129.56 81.9805 124.451 81.9805C119.341 81.9805 115.199 85.8546 115.199 90.6337C115.199 95.4127 119.341 99.2869 124.451 99.2869Z" fill="#B7906B"/>
<path d="M219.207 223.747C224.316 223.747 228.458 219.873 228.458 215.094C228.458 210.315 224.316 206.44 219.207 206.44C214.097 206.44 209.955 210.315 209.955 215.094C209.955 219.873 214.097 223.747 219.207 223.747Z" fill="#B7906B"/>
<path d="M292.412 87.4871C297.521 87.4871 301.663 83.6129 301.663 78.8339C301.663 74.0548 297.521 70.1807 292.412 70.1807C287.302 70.1807 283.16 74.0548 283.16 78.8339C283.16 83.6129 287.302 87.4871 292.412 87.4871Z" fill="#B7906B"/>
<path d="M234.726 250.776C237.734 250.776 240.173 248.287 240.173 245.217C240.173 242.146 237.734 239.657 234.726 239.657C231.718 239.657 229.279 242.146 229.279 245.217C229.279 248.287 231.718 250.776 234.726 250.776Z" fill="#B7906B"/>
<path d="M255.13 341.9C258.138 341.9 260.577 339.411 260.577 336.341C260.577 333.27 258.138 330.781 255.13 330.781C252.122 330.781 249.684 333.27 249.684 336.341C249.684 339.411 252.122 341.9 255.13 341.9Z" fill="#B7906B"/>
<path d="M148.132 106.912C151.14 106.912 153.579 104.423 153.579 101.352C153.579 98.282 151.14 95.793 148.132 95.793C145.124 95.793 142.686 98.282 142.686 101.352C142.686 104.423 145.124 106.912 148.132 106.912Z" fill="#B7906B"/>
<path d="M185.13 197.9C188.138 197.9 190.577 195.411 190.577 192.341C190.577 189.27 188.138 186.781 185.13 186.781C182.122 186.781 179.684 189.27 179.684 192.341C179.684 195.411 182.122 197.9 185.13 197.9Z" fill="#B7906B"/>
<path d="M245.984 305.579C248.992 305.579 251.43 303.09 251.43 300.019C251.43 296.949 248.992 294.46 245.984 294.46C242.976 294.46 240.537 296.949 240.537 300.019C240.537 303.09 242.976 305.579 245.984 305.579Z" fill="#B7906B"/>
<path d="M208.59 247.608C210.584 247.608 212.201 245.979 212.201 243.969C212.201 241.96 210.584 240.331 208.59 240.331C206.595 240.331 204.979 241.96 204.979 243.969C204.979 245.979 206.595 247.608 208.59 247.608Z" fill="#B7906B"/>
<path d="M245.486 272.666C247.48 272.666 249.097 271.037 249.097 269.028C249.097 267.019 247.48 265.39 245.486 265.39C243.492 265.39 241.875 267.019 241.875 269.028C241.875 271.037 243.492 272.666 245.486 272.666Z" fill="#B7906B"/>
<path d="M107.295 77.0678C109.289 77.0678 110.906 75.4389 110.906 73.4294C110.906 71.42 109.289 69.791 107.295 69.791C105.3 69.791 103.684 71.42 103.684 73.4294C103.684 75.4389 105.3 77.0678 107.295 77.0678Z" fill="#B7906B"/>
<path d="M235.297 324.068C237.291 324.068 238.908 322.439 238.908 320.429C238.908 318.42 237.291 316.791 235.297 316.791C233.302 316.791 231.686 318.42 231.686 320.429C231.686 322.439 233.302 324.068 235.297 324.068Z" fill="#B7906B"/>
<path d="M259.297 318.058C261.291 318.058 262.908 316.429 262.908 314.42C262.908 312.41 261.291 310.781 259.297 310.781C257.302 310.781 255.686 312.41 255.686 314.42C255.686 316.429 257.302 318.058 259.297 318.058Z" fill="#B7906B"/>
<path d="M252.297 360.086C254.291 360.086 255.908 358.457 255.908 356.448C255.908 354.439 254.291 352.81 252.297 352.81C250.302 352.81 248.686 354.439 248.686 356.448C248.686 358.457 250.302 360.086 252.297 360.086Z" fill="#B7906B"/>
<path d="M201.295 166.083C203.289 166.083 204.906 164.454 204.906 162.445C204.906 160.436 203.289 158.807 201.295 158.807C199.3 158.807 197.684 160.436 197.684 162.445C197.684 164.454 199.3 166.083 201.295 166.083Z" fill="#B7906B"/>
<path d="M207.562 196.584C209.557 196.584 211.173 194.955 211.173 192.946C211.173 190.937 209.557 189.308 207.562 189.308C205.568 189.308 203.951 190.937 203.951 192.946C203.951 194.955 205.568 196.584 207.562 196.584Z" fill="#B7906B"/>
<path d="M134.295 74.0708C136.289 74.0708 137.906 72.4418 137.906 70.4324C137.906 68.4229 136.289 66.7939 134.295 66.7939C132.3 66.7939 130.684 68.4229 130.684 70.4324C130.684 72.4418 132.3 74.0708 134.295 74.0708Z" fill="#B7906B"/>
<path d="M134.295 128.069C136.289 128.069 137.906 126.44 137.906 124.43C137.906 122.421 136.289 120.792 134.295 120.792C132.3 120.792 130.684 122.421 130.684 124.43C130.684 126.44 132.3 128.069 134.295 128.069Z" fill="#B7906B"/>
<path d="M158.295 156.068C160.289 156.068 161.906 154.439 161.906 152.429C161.906 150.42 160.289 148.791 158.295 148.791C156.3 148.791 154.684 150.42 154.684 152.429C154.684 154.439 156.3 156.068 158.295 156.068Z" fill="#B7906B"/>
<path d="M219.57 285.958C224.679 285.958 228.821 282.084 228.821 277.305C228.821 272.526 224.679 268.651 219.57 268.651C214.46 268.651 210.318 272.526 210.318 277.305C210.318 282.084 214.46 285.958 219.57 285.958Z" fill="#B7906B"/>
<path d="M162.937 134.1C168.047 134.1 172.189 130.226 172.189 125.447C172.189 120.668 168.047 116.794 162.937 116.794C157.828 116.794 153.686 120.668 153.686 125.447C153.686 130.226 157.828 134.1 162.937 134.1Z" fill="#B7906B"/>
<path d="M112.295 62.0707C114.289 62.0707 115.906 60.4418 115.906 58.4323C115.906 56.4229 114.289 54.7939 112.295 54.7939C110.3 54.7939 108.684 56.4229 108.684 58.4323C108.684 60.4418 110.3 62.0707 112.295 62.0707Z" fill="#B7906B"/>
<path d="M76.2676 302.665C120.7 207.961 176.871 128.138 273.786 85.8408" stroke="#BF9770" stroke-width="8.28775" stroke-linecap="round" stroke-linejoin="round"/>
<path d="M107.975 360.454C140.354 229.916 181.683 127.642 274.005 85.6934" stroke="#BF9770" stroke-width="8.28775" stroke-linecap="round" stroke-linejoin="round"/>
<path d="M76.4082 302.136C134.568 240.9 113.103 314.712 108.073 359.169" stroke="#BF9770" stroke-width="8.28775" stroke-linecap="round" stroke-linejoin="round"/>
<path d="M499.328 91.2478C491.799 91.2478 485.193 89.587 479.51 86.2655C473.9 82.944 469.545 78.2939 466.445 72.3152C463.345 66.2626 461.795 59.1767 461.795 51.0575C461.795 44.9311 462.681 39.4322 464.452 34.5606C466.224 29.6153 468.733 25.408 471.981 21.9389C475.303 18.3959 479.252 15.7018 483.828 13.8565C488.478 11.9374 493.645 10.9779 499.328 10.9779C506.931 10.9779 513.537 12.6386 519.147 15.9602C524.756 19.2079 529.111 23.8211 532.211 29.7998C535.311 35.7785 536.861 42.8275 536.861 50.9468C536.861 57.0731 535.976 62.609 534.204 67.5543C532.433 72.4997 529.886 76.7439 526.565 80.2868C523.317 83.8297 519.368 86.5608 514.718 88.4799C510.142 90.3252 505.012 91.2478 499.328 91.2478ZM499.328 79.0689C504.126 79.0689 508.186 77.9617 511.507 75.7474C514.902 73.5331 517.486 70.3223 519.257 66.115C521.103 61.9078 522.025 56.8886 522.025 51.0575C522.025 42.2001 520.032 35.3357 516.047 30.4641C512.135 25.5925 506.562 23.1568 499.328 23.1568C494.604 23.1568 490.545 24.2639 487.149 26.4783C483.754 28.6188 481.134 31.7927 479.288 36C477.517 40.1334 476.631 45.1526 476.631 51.0575C476.631 59.841 478.624 66.7055 482.61 71.6509C486.596 76.5962 492.169 79.0689 499.328 79.0689ZM556.808 110.955C554.593 110.955 552.896 110.365 551.715 109.184C550.534 108.003 549.943 106.268 549.943 103.98V42.0894C549.943 39.8012 550.534 38.0667 551.715 36.8857C552.896 35.7047 554.556 35.1142 556.697 35.1142C558.911 35.1142 560.609 35.7047 561.79 36.8857C562.971 38.0667 563.561 39.8012 563.561 42.0894V50.7253L562.344 47.4038C563.451 43.6394 565.702 40.6132 569.097 38.325C572.566 36.0369 576.589 34.8928 581.165 34.8928C585.889 34.8928 590.023 36.0369 593.566 38.325C597.183 40.6132 599.987 43.8609 601.98 48.0681C603.973 52.2016 604.97 57.1838 604.97 63.0149C604.97 68.7722 603.973 73.7914 601.98 78.0725C599.987 82.2797 597.219 85.5274 593.677 87.8156C590.134 90.1037 585.963 91.2478 581.165 91.2478C576.663 91.2478 572.714 90.1406 569.319 87.9263C565.923 85.6381 563.635 82.6857 562.454 79.0689H563.783V103.98C563.783 106.268 563.155 108.003 561.901 109.184C560.72 110.365 559.022 110.955 556.808 110.955ZM577.29 80.7297C580.021 80.7297 582.42 80.0654 584.487 78.7368C586.554 77.4082 588.141 75.4522 589.248 72.8688C590.429 70.2115 591.019 66.9269 591.019 63.0149C591.019 57.11 589.765 52.7182 587.255 49.8396C584.745 46.8871 581.424 45.4109 577.29 45.4109C574.559 45.4109 572.16 46.0752 570.094 47.4038C568.027 48.6586 566.403 50.6146 565.222 53.2718C564.115 55.8552 563.561 59.1029 563.561 63.0149C563.561 68.846 564.816 73.2747 567.326 76.301C569.835 79.2534 573.157 80.7297 577.29 80.7297ZM643.013 91.2478C636.887 91.2478 631.609 90.1037 627.181 87.8156C622.752 85.5274 619.32 82.2797 616.884 78.0725C614.522 73.8652 613.341 68.8829 613.341 63.1256C613.341 57.516 614.485 52.6075 616.773 48.4003C619.135 44.193 622.346 40.9084 626.406 38.5464C630.539 36.1107 635.226 34.8928 640.467 34.8928C644.305 34.8928 647.737 35.5202 650.763 36.775C653.863 38.0298 656.484 39.8381 658.624 42.2001C660.839 44.5621 662.499 47.4407 663.606 50.836C664.787 54.1576 665.378 57.9219 665.378 62.1292C665.378 63.4578 664.898 64.4912 663.939 65.2293C663.053 65.8936 661.761 66.2257 660.064 66.2257H624.523V58.2541H655.635L653.863 59.9149C653.863 56.5195 653.347 53.6778 652.313 51.3896C651.354 49.1015 649.914 47.3669 647.995 46.1859C646.15 44.9311 643.825 44.3037 641.02 44.3037C637.92 44.3037 635.263 45.0419 633.049 46.5181C630.908 47.9205 629.247 49.9503 628.066 52.6075C626.959 55.1909 626.406 58.291 626.406 61.9078V62.6828C626.406 68.7353 627.808 73.2747 630.613 76.301C633.491 79.2534 637.699 80.7297 643.235 80.7297C645.154 80.7297 647.294 80.5082 649.656 80.0654C652.092 79.5487 654.38 78.6999 656.521 77.5189C658.071 76.6331 659.436 76.2641 660.617 76.4117C661.798 76.4855 662.721 76.8915 663.385 77.6296C664.123 78.3677 664.566 79.2903 664.714 80.3975C664.861 81.4309 664.64 82.5011 664.049 83.6083C663.533 84.7155 662.61 85.675 661.281 86.487C658.698 88.1108 655.709 89.3287 652.313 90.1406C648.992 90.8787 645.892 91.2478 643.013 91.2478ZM683.203 91.0264C680.988 91.0264 679.291 90.4359 678.11 89.2549C676.929 88.0001 676.338 86.2286 676.338 83.9405V42.0894C676.338 39.8012 676.929 38.0667 678.11 36.8857C679.291 35.7047 680.951 35.1142 683.092 35.1142C685.232 35.1142 686.893 35.7047 688.074 36.8857C689.255 38.0667 689.846 39.8012 689.846 42.0894V49.6182L688.628 46.8502C690.252 42.9382 692.761 39.9858 696.156 37.9929C699.626 35.9261 703.538 34.8928 707.892 34.8928C712.247 34.8928 715.827 35.7047 718.632 37.3286C721.437 38.9524 723.54 41.4251 724.943 44.7466C726.345 47.9943 727.047 52.1277 727.047 57.1469V83.9405C727.047 86.2286 726.456 88.0001 725.275 89.2549C724.094 90.4359 722.396 91.0264 720.182 91.0264C717.968 91.0264 716.233 90.4359 714.978 89.2549C713.797 88.0001 713.207 86.2286 713.207 83.9405V57.8112C713.207 53.604 712.395 50.5408 710.771 48.6217C709.221 46.7026 706.785 45.7431 703.464 45.7431C699.404 45.7431 696.156 47.0348 693.721 49.6182C691.359 52.1277 690.178 55.4862 690.178 59.6934V83.9405C690.178 88.6644 687.853 91.0264 683.203 91.0264Z" fill="#BF9770"/>
<path d="M471.538 195.594C469.25 195.594 467.479 194.966 466.224 193.712C464.969 192.383 464.342 190.575 464.342 188.286V124.403C464.342 122.041 464.932 120.269 466.113 119.088C467.368 117.833 469.139 117.206 471.428 117.206C473.716 117.206 475.45 117.833 476.631 119.088C477.886 120.269 478.513 122.041 478.513 124.403V183.526H510.621C512.614 183.526 514.127 184.042 515.161 185.076C516.268 186.109 516.822 187.585 516.822 189.504C516.822 191.423 516.268 192.937 515.161 194.044C514.127 195.077 512.614 195.594 510.621 195.594H471.538ZM549.333 196.701C543.723 196.701 538.851 195.557 534.718 193.269C530.584 190.981 527.374 187.733 525.086 183.526C522.797 179.245 521.653 174.225 521.653 168.468C521.653 164.113 522.281 160.238 523.535 156.843C524.864 153.374 526.746 150.421 529.182 147.985C531.618 145.476 534.533 143.594 537.929 142.339C541.324 141.01 545.125 140.346 549.333 140.346C554.942 140.346 559.814 141.49 563.947 143.778C568.081 146.066 571.291 149.314 573.58 153.521C575.868 157.728 577.012 162.711 577.012 168.468C577.012 172.823 576.348 176.735 575.019 180.204C573.764 183.673 571.919 186.663 569.483 189.172C567.047 191.608 564.132 193.49 560.736 194.819C557.341 196.074 553.54 196.701 549.333 196.701ZM549.333 186.183C552.064 186.183 554.462 185.518 556.529 184.19C558.596 182.861 560.183 180.905 561.29 178.322C562.471 175.665 563.062 172.38 563.062 168.468C563.062 162.563 561.807 158.171 559.297 155.293C556.788 152.34 553.466 150.864 549.333 150.864C546.602 150.864 544.203 151.528 542.136 152.857C540.069 154.112 538.445 156.068 537.264 158.725C536.157 161.308 535.604 164.556 535.604 168.468C535.604 174.299 536.858 178.728 539.368 181.754C541.878 184.707 545.199 186.183 549.333 186.183ZM613.678 216.63C609.692 216.63 605.817 216.261 602.053 215.523C598.362 214.785 595.004 213.641 591.978 212.091C590.575 211.352 589.616 210.467 589.099 209.433C588.656 208.4 588.509 207.33 588.656 206.223C588.878 205.189 589.32 204.267 589.985 203.455C590.723 202.643 591.609 202.089 592.642 201.794C593.675 201.499 594.746 201.646 595.853 202.237C599.1 203.861 602.164 204.894 605.042 205.337C607.995 205.854 610.504 206.112 612.571 206.112C617.516 206.112 621.207 204.894 623.643 202.458C626.152 200.096 627.407 196.553 627.407 191.829V181.865H628.404C627.296 185.629 624.971 188.655 621.428 190.944C617.959 193.158 614.01 194.265 609.582 194.265C604.71 194.265 600.466 193.158 596.849 190.944C593.232 188.655 590.428 185.482 588.435 181.422C586.442 177.362 585.445 172.638 585.445 167.25C585.445 163.191 585.999 159.537 587.106 156.289C588.287 152.968 589.911 150.126 591.978 147.764C594.118 145.402 596.665 143.594 599.617 142.339C602.643 141.01 605.965 140.346 609.582 140.346C614.158 140.346 618.144 141.49 621.539 143.778C625.008 145.992 627.26 148.945 628.293 152.636L627.186 155.403V147.543C627.186 145.254 627.776 143.52 628.957 142.339C630.212 141.158 631.91 140.567 634.05 140.567C636.265 140.567 637.962 141.158 639.143 142.339C640.324 143.52 640.915 145.254 640.915 147.543V190.169C640.915 198.952 638.59 205.558 633.939 209.987C629.289 214.416 622.536 216.63 613.678 216.63ZM613.346 183.747C616.225 183.747 618.697 183.083 620.764 181.754C622.831 180.426 624.418 178.543 625.525 176.108C626.706 173.598 627.296 170.645 627.296 167.25C627.296 162.157 626.042 158.171 623.532 155.293C621.022 152.34 617.627 150.864 613.346 150.864C610.467 150.864 607.995 151.528 605.928 152.857C603.861 154.186 602.237 156.068 601.056 158.504C599.949 160.939 599.396 163.855 599.396 167.25C599.396 172.343 600.651 176.366 603.16 179.318C605.67 182.271 609.065 183.747 613.346 183.747ZM662.119 196.369C659.904 196.369 658.207 195.704 657.026 194.376C655.845 193.047 655.254 191.202 655.254 188.84V148.207C655.254 145.771 655.845 143.926 657.026 142.671C658.207 141.342 659.904 140.678 662.119 140.678C664.333 140.678 666.031 141.342 667.212 142.671C668.466 143.926 669.094 145.771 669.094 148.207V188.84C669.094 191.202 668.503 193.047 667.322 194.376C666.141 195.704 664.407 196.369 662.119 196.369ZM662.119 130.381C659.535 130.381 657.505 129.754 656.029 128.499C654.627 127.171 653.926 125.362 653.926 123.074C653.926 120.712 654.627 118.904 656.029 117.649C657.505 116.394 659.535 115.767 662.119 115.767C664.776 115.767 666.806 116.394 668.208 117.649C669.611 118.904 670.312 120.712 670.312 123.074C670.312 125.362 669.611 127.171 668.208 128.499C666.806 129.754 664.776 130.381 662.119 130.381ZM708.496 196.701C702.813 196.701 697.867 195.557 693.66 193.269C689.453 190.907 686.205 187.585 683.917 183.304C681.629 179.023 680.485 174.004 680.485 168.247C680.485 163.892 681.112 160.017 682.367 156.621C683.696 153.152 685.578 150.237 688.014 147.875C690.449 145.439 693.402 143.594 696.871 142.339C700.34 141.01 704.215 140.346 708.496 140.346C710.932 140.346 713.552 140.678 716.357 141.342C719.236 142.007 721.93 143.114 724.439 144.664C725.62 145.402 726.395 146.288 726.765 147.321C727.134 148.354 727.207 149.425 726.986 150.532C726.765 151.565 726.285 152.488 725.547 153.3C724.882 154.038 724.034 154.518 723 154.739C721.967 154.887 720.823 154.628 719.568 153.964C717.944 153.005 716.283 152.303 714.586 151.86C712.888 151.344 711.264 151.085 709.714 151.085C707.278 151.085 705.138 151.491 703.293 152.303C701.447 153.041 699.86 154.149 698.532 155.625C697.277 157.027 696.317 158.799 695.653 160.939C694.989 163.08 694.657 165.553 694.657 168.357C694.657 173.819 695.948 178.137 698.532 181.311C701.189 184.411 704.916 185.961 709.714 185.961C711.264 185.961 712.851 185.74 714.475 185.297C716.173 184.854 717.87 184.153 719.568 183.193C720.823 182.529 721.93 182.308 722.889 182.529C723.923 182.751 724.772 183.267 725.436 184.079C726.1 184.817 726.506 185.74 726.654 186.847C726.801 187.88 726.654 188.914 726.211 189.947C725.842 190.981 725.104 191.829 723.997 192.494C721.561 193.97 718.977 195.04 716.246 195.704C713.515 196.369 710.932 196.701 708.496 196.701ZM753.198 196.701C749.286 196.701 745.78 195.963 742.68 194.487C739.654 192.937 737.255 190.87 735.484 188.286C733.786 185.703 732.937 182.787 732.937 179.54C732.937 175.554 733.97 172.417 736.037 170.129C738.104 167.767 741.462 166.069 746.112 165.036C750.762 164.002 757 163.486 764.824 163.486H770.359V171.457H764.934C760.358 171.457 756.704 171.679 753.973 172.122C751.242 172.565 749.286 173.34 748.105 174.447C746.998 175.48 746.445 176.956 746.445 178.875C746.445 181.311 747.293 183.304 748.991 184.854C750.689 186.404 753.051 187.179 756.077 187.179C758.513 187.179 760.653 186.626 762.498 185.518C764.418 184.338 765.931 182.751 767.038 180.758C768.145 178.765 768.699 176.477 768.699 173.893V161.161C768.699 157.47 767.887 154.813 766.263 153.189C764.639 151.565 761.908 150.753 758.07 150.753C755.929 150.753 753.604 151.012 751.095 151.528C748.659 152.045 746.075 152.931 743.344 154.186C741.942 154.85 740.687 155.034 739.58 154.739C738.547 154.444 737.735 153.853 737.144 152.968C736.554 152.008 736.259 150.975 736.259 149.868C736.259 148.76 736.554 147.69 737.144 146.657C737.735 145.55 738.731 144.738 740.134 144.221C743.529 142.819 746.777 141.822 749.877 141.232C753.051 140.641 755.929 140.346 758.513 140.346C763.827 140.346 768.182 141.158 771.577 142.782C775.046 144.406 777.63 146.878 779.327 150.2C781.025 153.447 781.874 157.655 781.874 162.821V189.394C781.874 191.682 781.32 193.453 780.213 194.708C779.106 195.889 777.519 196.479 775.452 196.479C773.386 196.479 771.762 195.889 770.581 194.708C769.474 193.453 768.92 191.682 768.92 189.394V184.079H769.806C769.289 186.663 768.256 188.914 766.706 190.833C765.23 192.678 763.347 194.118 761.059 195.151C758.771 196.184 756.151 196.701 753.198 196.701ZM814.411 196.701C808.285 196.701 803.671 194.966 800.571 191.497C797.471 187.954 795.921 182.787 795.921 175.997V123.628C795.921 121.339 796.512 119.605 797.693 118.424C798.874 117.243 800.571 116.652 802.786 116.652C805 116.652 806.698 117.243 807.879 118.424C809.133 119.605 809.761 121.339 809.761 123.628V175.333C809.761 178.728 810.462 181.237 811.864 182.861C813.341 184.485 815.407 185.297 818.065 185.297C818.655 185.297 819.209 185.297 819.725 185.297C820.242 185.223 820.759 185.149 821.275 185.076C822.309 184.928 823.01 185.223 823.379 185.961C823.748 186.626 823.933 188.028 823.933 190.169C823.933 192.014 823.564 193.453 822.825 194.487C822.087 195.52 820.869 196.147 819.172 196.369C818.434 196.443 817.659 196.516 816.847 196.59C816.035 196.664 815.223 196.701 814.411 196.701Z" fill="#BF9770"/>
<path d="M466.999 301.933C465.154 301.933 463.64 301.453 462.459 300.493C461.278 299.46 460.577 298.205 460.356 296.729C460.208 295.179 460.725 293.629 461.906 292.079L487.26 258.31V264.4L463.124 232.07C461.943 230.446 461.426 228.896 461.574 227.42C461.721 225.87 462.386 224.615 463.567 223.656C464.748 222.622 466.224 222.106 467.995 222.106C469.472 222.106 470.763 222.475 471.87 223.213C473.051 223.877 474.232 225.021 475.413 226.645L495.342 254.103H490.803L510.621 226.645C511.802 225.021 512.946 223.877 514.054 223.213C515.235 222.475 516.6 222.106 518.15 222.106C519.995 222.106 521.509 222.585 522.69 223.545C523.871 224.504 524.535 225.759 524.682 227.309C524.83 228.786 524.276 230.372 523.022 232.07L498.885 264.4V258.31L524.129 292.079C525.31 293.629 525.827 295.179 525.679 296.729C525.531 298.205 524.867 299.46 523.686 300.493C522.505 301.453 520.955 301.933 519.036 301.933C517.633 301.933 516.342 301.564 515.161 300.825C514.054 300.087 512.873 298.906 511.618 297.282L490.582 268.496H495.453L474.528 297.282C473.347 298.906 472.166 300.087 470.985 300.825C469.804 301.564 468.475 301.933 466.999 301.933Z" fill="#BF9770"/>
<path d="M465.117 407.386C463.345 407.386 461.906 406.98 460.799 406.168C459.765 405.356 459.138 404.286 458.916 402.957C458.695 401.555 458.953 400.005 459.692 398.307L488.921 333.537C489.88 331.397 491.024 329.884 492.353 328.998C493.755 328.038 495.342 327.559 497.114 327.559C498.812 327.559 500.325 328.038 501.653 328.998C503.056 329.884 504.237 331.397 505.196 333.537L534.536 398.307C535.348 400.005 535.643 401.555 535.422 402.957C535.201 404.359 534.573 405.467 533.54 406.279C532.506 407.017 531.141 407.386 529.443 407.386C527.377 407.386 525.753 406.906 524.572 405.946C523.465 404.913 522.468 403.363 521.582 401.296L514.386 384.578L520.364 388.453H473.642L479.621 384.578L472.535 401.296C471.575 403.437 470.579 404.987 469.545 405.946C468.512 406.906 467.036 407.386 465.117 407.386ZM496.892 343.834L481.392 380.703L478.513 377.16H515.493L512.725 380.703L497.114 343.834H496.892ZM552.488 407.386C550.2 407.386 548.428 406.795 547.174 405.614C545.993 404.359 545.402 402.588 545.402 400.3V358.449C545.402 356.161 545.993 354.426 547.174 353.245C548.355 352.064 550.015 351.474 552.156 351.474C554.296 351.474 555.957 352.064 557.138 353.245C558.319 354.426 558.91 356.161 558.91 358.449V365.424H557.802C558.836 360.995 560.866 357.637 563.892 355.349C566.918 353.061 570.941 351.695 575.96 351.252C577.51 351.105 578.728 351.51 579.614 352.47C580.573 353.356 581.127 354.758 581.274 356.677C581.422 358.523 580.979 360.036 579.946 361.217C578.986 362.324 577.51 362.988 575.517 363.21L573.081 363.431C568.579 363.874 565.184 365.276 562.895 367.638C560.607 369.926 559.463 373.174 559.463 377.381V400.3C559.463 402.588 558.873 404.359 557.692 405.614C556.511 406.795 554.776 407.386 552.488 407.386ZM612.916 407.607C607.233 407.607 602.287 406.463 598.08 404.175C593.873 401.813 590.625 398.491 588.337 394.21C586.049 389.929 584.905 384.91 584.905 379.153C584.905 374.798 585.532 370.923 586.787 367.528C588.116 364.058 589.998 361.143 592.434 358.781C594.869 356.345 597.822 354.5 601.291 353.245C604.76 351.916 608.635 351.252 612.916 351.252C615.352 351.252 617.972 351.584 620.777 352.249C623.656 352.913 626.35 354.02 628.859 355.57C630.04 356.308 630.815 357.194 631.185 358.227C631.554 359.261 631.627 360.331 631.406 361.438C631.185 362.471 630.705 363.394 629.967 364.206C629.302 364.944 628.454 365.424 627.42 365.645C626.387 365.793 625.243 365.535 623.988 364.87C622.364 363.911 620.703 363.21 619.006 362.767C617.308 362.25 615.684 361.992 614.134 361.992C611.698 361.992 609.558 362.398 607.713 363.21C605.867 363.948 604.28 365.055 602.952 366.531C601.697 367.934 600.737 369.705 600.073 371.846C599.409 373.986 599.077 376.459 599.077 379.264C599.077 384.726 600.368 389.044 602.952 392.217C605.609 395.318 609.336 396.868 614.134 396.868C615.684 396.868 617.271 396.646 618.895 396.203C620.593 395.76 622.29 395.059 623.988 394.1C625.243 393.435 626.35 393.214 627.309 393.435C628.343 393.657 629.192 394.173 629.856 394.985C630.52 395.724 630.926 396.646 631.074 397.753C631.221 398.787 631.074 399.82 630.631 400.853C630.262 401.887 629.524 402.736 628.417 403.4C625.981 404.876 623.397 405.946 620.666 406.611C617.935 407.275 615.352 407.607 612.916 407.607ZM646.982 407.386C644.767 407.386 643.07 406.795 641.889 405.614C640.708 404.359 640.117 402.588 640.117 400.3V334.534C640.117 332.246 640.708 330.511 641.889 329.33C643.07 328.149 644.767 327.559 646.982 327.559C649.196 327.559 650.894 328.149 652.075 329.33C653.329 330.511 653.957 332.246 653.957 334.534V363.21H652.407C654.031 359.298 656.54 356.345 659.936 354.352C663.405 352.286 667.317 351.252 671.672 351.252C676.026 351.252 679.606 352.064 682.411 353.688C685.216 355.312 687.32 357.784 688.722 361.106C690.124 364.354 690.826 368.487 690.826 373.506V400.3C690.826 402.588 690.235 404.359 689.054 405.614C687.873 406.795 686.175 407.386 683.961 407.386C681.747 407.386 680.012 406.795 678.757 405.614C677.576 404.359 676.986 402.588 676.986 400.3V374.171C676.986 369.963 676.174 366.9 674.55 364.981C673 363.062 670.564 362.102 667.243 362.102C663.183 362.102 659.936 363.394 657.5 365.978C655.138 368.487 653.957 371.846 653.957 376.053V400.3C653.957 405.024 651.632 407.386 646.982 407.386ZM711.747 407.275C709.532 407.275 707.835 406.611 706.654 405.282C705.473 403.954 704.882 402.108 704.882 399.746V359.113C704.882 356.677 705.473 354.832 706.654 353.577C707.835 352.249 709.532 351.584 711.747 351.584C713.961 351.584 715.659 352.249 716.84 353.577C718.095 354.832 718.722 356.677 718.722 359.113V399.746C718.722 402.108 718.131 403.954 716.95 405.282C715.77 406.611 714.035 407.275 711.747 407.275ZM711.747 341.288C709.163 341.288 707.134 340.66 705.657 339.405C704.255 338.077 703.554 336.268 703.554 333.98C703.554 331.618 704.255 329.81 705.657 328.555C707.134 327.3 709.163 326.673 711.747 326.673C714.404 326.673 716.434 327.3 717.836 328.555C719.239 329.81 719.94 331.618 719.94 333.98C719.94 336.268 719.239 338.077 717.836 339.405C716.434 340.66 714.404 341.288 711.747 341.288ZM757.903 407.607C753.105 407.607 749.082 406.795 745.835 405.171C742.661 403.548 740.299 401.186 738.749 398.085C737.199 394.912 736.424 391 736.424 386.349V362.767H730.666C728.895 362.767 727.529 362.324 726.57 361.438C725.61 360.479 725.131 359.187 725.131 357.563C725.131 355.865 725.61 354.574 726.57 353.688C727.529 352.802 728.895 352.359 730.666 352.359H736.424V342.284C736.424 339.996 737.014 338.261 738.195 337.08C739.45 335.899 741.185 335.309 743.399 335.309C745.613 335.309 747.311 335.899 748.492 337.08C749.673 338.261 750.263 339.996 750.263 342.284V352.359H761.999C763.771 352.359 765.136 352.802 766.096 353.688C767.055 354.574 767.535 355.865 767.535 357.563C767.535 359.187 767.055 360.479 766.096 361.438C765.136 362.324 763.771 362.767 761.999 362.767H750.263V385.574C750.263 389.117 751.038 391.775 752.588 393.546C754.138 395.318 756.648 396.203 760.117 396.203C761.372 396.203 762.479 396.093 763.439 395.871C764.398 395.65 765.247 395.502 765.985 395.428C766.871 395.354 767.609 395.65 768.2 396.314C768.79 396.905 769.085 398.159 769.085 400.078C769.085 401.555 768.827 402.883 768.31 404.064C767.867 405.171 767.019 405.946 765.764 406.389C764.804 406.685 763.549 406.943 761.999 407.164C760.449 407.46 759.084 407.607 757.903 407.607ZM801.736 407.607C795.61 407.607 790.333 406.463 785.904 404.175C781.475 401.887 778.043 398.639 775.607 394.432C773.245 390.225 772.064 385.242 772.064 379.485C772.064 373.875 773.208 368.967 775.496 364.76C777.858 360.552 781.069 357.268 785.129 354.906C789.262 352.47 793.949 351.252 799.19 351.252C803.028 351.252 806.46 351.88 809.487 353.134C812.587 354.389 815.207 356.198 817.348 358.559C819.562 360.921 821.223 363.8 822.33 367.195C823.511 370.517 824.101 374.281 824.101 378.489C824.101 379.817 823.622 380.851 822.662 381.589C821.776 382.253 820.485 382.585 818.787 382.585H783.247V374.613H814.358L812.587 376.274C812.587 372.879 812.07 370.037 811.037 367.749C810.077 365.461 808.638 363.726 806.719 362.545C804.873 361.291 802.548 360.663 799.744 360.663C796.643 360.663 793.986 361.401 791.772 362.877C789.631 364.28 787.971 366.31 786.79 368.967C785.682 371.55 785.129 374.65 785.129 378.267V379.042C785.129 385.095 786.531 389.634 789.336 392.66C792.215 395.613 796.422 397.089 801.958 397.089C803.877 397.089 806.017 396.868 808.379 396.425C810.815 395.908 813.103 395.059 815.244 393.878C816.794 392.993 818.159 392.623 819.34 392.771C820.521 392.845 821.444 393.251 822.108 393.989C822.846 394.727 823.289 395.65 823.437 396.757C823.585 397.79 823.363 398.861 822.773 399.968C822.256 401.075 821.333 402.034 820.005 402.846C817.421 404.47 814.432 405.688 811.037 406.5C807.715 407.238 804.615 407.607 801.736 407.607ZM860.083 407.607C854.4 407.607 849.455 406.463 845.247 404.175C841.04 401.813 837.792 398.491 835.504 394.21C833.216 389.929 832.072 384.91 832.072 379.153C832.072 374.798 832.699 370.923 833.954 367.528C835.283 364.058 837.165 361.143 839.601 358.781C842.037 356.345 844.989 354.5 848.458 353.245C851.927 351.916 855.802 351.252 860.083 351.252C862.519 351.252 865.14 351.584 867.944 352.249C870.823 352.913 873.517 354.02 876.027 355.57C877.208 356.308 877.983 357.194 878.352 358.227C878.721 359.261 878.795 360.331 878.573 361.438C878.352 362.471 877.872 363.394 877.134 364.206C876.47 364.944 875.621 365.424 874.587 365.645C873.554 365.793 872.41 365.535 871.155 364.87C869.531 363.911 867.871 363.21 866.173 362.767C864.475 362.25 862.851 361.992 861.301 361.992C858.866 361.992 856.725 362.398 854.88 363.21C853.034 363.948 851.448 365.055 850.119 366.531C848.864 367.934 847.905 369.705 847.24 371.846C846.576 373.986 846.244 376.459 846.244 379.264C846.244 384.726 847.536 389.044 850.119 392.217C852.776 395.318 856.504 396.868 861.301 396.868C862.851 396.868 864.438 396.646 866.062 396.203C867.76 395.76 869.458 395.059 871.155 394.1C872.41 393.435 873.517 393.214 874.477 393.435C875.51 393.657 876.359 394.173 877.023 394.985C877.688 395.724 878.093 396.646 878.241 397.753C878.389 398.787 878.241 399.82 877.798 400.853C877.429 401.887 876.691 402.736 875.584 403.4C873.148 404.876 870.565 405.946 867.834 406.611C865.103 407.275 862.519 407.607 860.083 407.607ZM912.301 407.607C907.504 407.607 903.481 406.795 900.233 405.171C897.059 403.548 894.697 401.186 893.147 398.085C891.597 394.912 890.822 391 890.822 386.349V362.767H885.065C883.293 362.767 881.928 362.324 880.968 361.438C880.009 360.479 879.529 359.187 879.529 357.563C879.529 355.865 880.009 354.574 880.968 353.688C881.928 352.802 883.293 352.359 885.065 352.359H890.822V342.284C890.822 339.996 891.413 338.261 892.594 337.08C893.848 335.899 895.583 335.309 897.797 335.309C900.012 335.309 901.709 335.899 902.89 337.08C904.071 338.261 904.662 339.996 904.662 342.284V352.359H916.398C918.169 352.359 919.535 352.802 920.494 353.688C921.454 354.574 921.934 355.865 921.934 357.563C921.934 359.187 921.454 360.479 920.494 361.438C919.535 362.324 918.169 362.767 916.398 362.767H904.662V385.574C904.662 389.117 905.437 391.775 906.987 393.546C908.537 395.318 911.047 396.203 914.516 396.203C915.77 396.203 916.878 396.093 917.837 395.871C918.797 395.65 919.646 395.502 920.384 395.428C921.269 395.354 922.008 395.65 922.598 396.314C923.189 396.905 923.484 398.159 923.484 400.078C923.484 401.555 923.225 402.883 922.709 404.064C922.266 405.171 921.417 405.946 920.162 406.389C919.203 406.685 917.948 406.943 916.398 407.164C914.848 407.46 913.482 407.607 912.301 407.607ZM949.59 407.607C945.087 407.607 941.36 406.795 938.407 405.171C935.455 403.474 933.24 400.964 931.764 397.643C930.362 394.321 929.661 390.188 929.661 385.242V358.449C929.661 356.087 930.251 354.352 931.432 353.245C932.613 352.064 934.311 351.474 936.525 351.474C938.739 351.474 940.437 352.064 941.618 353.245C942.873 354.352 943.5 356.087 943.5 358.449V385.464C943.5 389.302 944.275 392.144 945.825 393.989C947.375 395.834 949.848 396.757 953.243 396.757C956.934 396.757 959.96 395.502 962.322 392.993C964.684 390.409 965.865 387.014 965.865 382.807V358.449C965.865 356.087 966.456 354.352 967.637 353.245C968.817 352.064 970.515 351.474 972.73 351.474C974.944 351.474 976.642 352.064 977.822 353.245C979.077 354.352 979.705 356.087 979.705 358.449V400.3C979.705 405.024 977.453 407.386 972.951 407.386C970.81 407.386 969.15 406.795 967.969 405.614C966.788 404.359 966.197 402.588 966.197 400.3V391.885L967.747 395.207C966.197 399.193 963.835 402.256 960.661 404.396C957.561 406.537 953.871 407.607 949.59 407.607ZM1001.2 407.386C998.907 407.386 997.135 406.795 995.881 405.614C994.7 404.359 994.109 402.588 994.109 400.3V358.449C994.109 356.161 994.7 354.426 995.881 353.245C997.062 352.064 998.722 351.474 1000.86 351.474C1003 351.474 1004.66 352.064 1005.85 353.245C1007.03 354.426 1007.62 356.161 1007.62 358.449V365.424H1006.51C1007.54 360.995 1009.57 357.637 1012.6 355.349C1015.63 353.061 1019.65 351.695 1024.67 351.252C1026.22 351.105 1027.44 351.51 1028.32 352.47C1029.28 353.356 1029.83 354.758 1029.98 356.677C1030.13 358.523 1029.69 360.036 1028.65 361.217C1027.69 362.324 1026.22 362.988 1024.22 363.21L1021.79 363.431C1017.29 363.874 1013.89 365.276 1011.6 367.638C1009.31 369.926 1008.17 373.174 1008.17 377.381V400.3C1008.17 402.588 1007.58 404.359 1006.4 405.614C1005.22 406.795 1003.48 407.386 1001.2 407.386ZM1063.28 407.607C1057.16 407.607 1051.88 406.463 1047.45 404.175C1043.02 401.887 1039.59 398.639 1037.15 394.432C1034.79 390.225 1033.61 385.242 1033.61 379.485C1033.61 373.875 1034.76 368.967 1037.04 364.76C1039.41 360.552 1042.62 357.268 1046.68 354.906C1050.81 352.47 1055.5 351.252 1060.74 351.252C1064.58 351.252 1068.01 351.88 1071.03 353.134C1074.13 354.389 1076.75 356.198 1078.9 358.559C1081.11 360.921 1082.77 363.8 1083.88 367.195C1085.06 370.517 1085.65 374.281 1085.65 378.489C1085.65 379.817 1085.17 380.851 1084.21 381.589C1083.32 382.253 1082.03 382.585 1080.33 382.585H1044.79V374.613H1075.91L1074.13 376.274C1074.13 372.879 1073.62 370.037 1072.58 367.749C1071.62 365.461 1070.19 363.726 1068.27 362.545C1066.42 361.291 1064.1 360.663 1061.29 360.663C1058.19 360.663 1055.53 361.401 1053.32 362.877C1051.18 364.28 1049.52 366.31 1048.34 368.967C1047.23 371.55 1046.68 374.65 1046.68 378.267V379.042C1046.68 385.095 1048.08 389.634 1050.88 392.66C1053.76 395.613 1057.97 397.089 1063.51 397.089C1065.42 397.089 1067.57 396.868 1069.93 396.425C1072.36 395.908 1074.65 395.059 1076.79 393.878C1078.34 392.993 1079.71 392.623 1080.89 392.771C1082.07 392.845 1082.99 393.251 1083.66 393.989C1084.39 394.727 1084.84 395.65 1084.98 396.757C1085.13 397.79 1084.91 398.861 1084.32 399.968C1083.8 401.075 1082.88 402.034 1081.55 402.846C1078.97 404.47 1075.98 405.688 1072.58 406.5C1069.26 407.238 1066.16 407.607 1063.28 407.607ZM1116.43 407.607C1113.25 407.607 1109.9 407.275 1106.35 406.611C1102.81 405.946 1099.64 404.802 1096.83 403.178C1095.65 402.44 1094.8 401.592 1094.28 400.632C1093.84 399.599 1093.66 398.602 1093.73 397.643C1093.88 396.609 1094.25 395.724 1094.84 394.985C1095.5 394.247 1096.31 393.768 1097.27 393.546C1098.31 393.325 1099.41 393.509 1100.59 394.1C1103.55 395.502 1106.32 396.499 1108.9 397.089C1111.48 397.606 1114.03 397.864 1116.54 397.864C1120.08 397.864 1122.7 397.274 1124.4 396.093C1126.17 394.838 1127.06 393.214 1127.06 391.221C1127.06 389.523 1126.47 388.232 1125.28 387.346C1124.18 386.386 1122.48 385.685 1120.19 385.242L1109.12 383.139C1104.54 382.253 1101.04 380.592 1098.6 378.156C1096.24 375.647 1095.06 372.436 1095.06 368.524C1095.06 364.981 1096.02 361.918 1097.94 359.335C1099.93 356.751 1102.66 354.758 1106.13 353.356C1109.6 351.953 1113.59 351.252 1118.09 351.252C1121.34 351.252 1124.36 351.621 1127.17 352.359C1130.05 353.024 1132.81 354.094 1135.47 355.57C1136.58 356.161 1137.32 356.936 1137.69 357.895C1138.13 358.855 1138.24 359.851 1138.02 360.885C1137.8 361.844 1137.35 362.73 1136.69 363.542C1136.02 364.28 1135.18 364.76 1134.14 364.981C1133.18 365.129 1132.08 364.907 1130.82 364.317C1128.53 363.136 1126.32 362.287 1124.18 361.77C1122.11 361.254 1120.12 360.995 1118.2 360.995C1114.58 360.995 1111.89 361.623 1110.12 362.877C1108.42 364.132 1107.57 365.793 1107.57 367.86C1107.57 369.41 1108.09 370.701 1109.12 371.735C1110.15 372.768 1111.74 373.469 1113.88 373.838L1124.95 375.942C1129.75 376.828 1133.37 378.452 1135.8 380.814C1138.31 383.176 1139.57 386.349 1139.57 390.335C1139.57 395.724 1137.46 399.968 1133.26 403.068C1129.05 406.094 1123.44 407.607 1116.43 407.607Z" fill="#BF9770"/>
</g>
<defs>
<filter id="filter0_d_781_55" x="0" y="0" width="1134.94" height="419.401" filterUnits="userSpaceOnUse" color-interpolation-filters="sRGB">
<feFlood flood-opacity="0" result="BackgroundImageFix"/>
<feColorMatrix in="SourceAlpha" type="matrix" values="0 0 0 0 0 0 0 0 0 0 0 0 0 0 0 0 0 0 127 0" result="hardAlpha"/>
<feOffset dy="4"/>
<feGaussianBlur stdDeviation="2"/>
<feComposite in2="hardAlpha" operator="out"/>
<feColorMatrix type="matrix" values="0 0 0 0 0 0 0 0 0 0 0 0 0 0 0 0 0 0 0.25 0"/>
<feBlend mode="normal" in2="BackgroundImageFix" result="effect1_dropShadow_781_55"/>
<feBlend mode="normal" in="SourceGraphic" in2="effect1_dropShadow_781_55" result="shape"/>
</filter>
<clipPath id="clip0_781_55">
<rect width="1126.94" height="411.402" fill="white" transform="translate(4)"/>
</clipPath>
</defs>
</svg>
