<?xml version="1.0" encoding="UTF-8" standalone="no"?>
<svg
   version="1.1"
   width="256"
   height="256"
   viewBox="0 0 256 256"
   xml:space="preserve"
   id="svg2"
   sodipodi:docname="youtube.svg"
   inkscape:version="1.3 (0e150ed6c4, 2023-07-21)"
   xmlns:inkscape="http://www.inkscape.org/namespaces/inkscape"
   xmlns:sodipodi="http://sodipodi.sourceforge.net/DTD/sodipodi-0.dtd"
   xmlns="http://www.w3.org/2000/svg"
   xmlns:svg="http://www.w3.org/2000/svg"><sodipodi:namedview
   id="namedview2"
   pagecolor="#ffffff"
   bordercolor="#000000"
   borderopacity="0.25"
   inkscape:showpageshadow="2"
   inkscape:pageopacity="0.0"
   inkscape:pagecheckerboard="0"
   inkscape:deskcolor="#d1d1d1"
   inkscape:zoom="3.2070312"
   inkscape:cx="82.007308"
   inkscape:cy="149.20341"
   inkscape:window-width="1920"
   inkscape:window-height="1017"
   inkscape:window-x="-8"
   inkscape:window-y="-8"
   inkscape:window-maximized="1"
   inkscape:current-layer="svg2" />&#10;&#10;<defs
   id="defs1">&#10;&#10;	&#10;	&#10;</defs>&#10;<path
   d="m 127.85659,218.05759 c -3.11629,0 -76.530347,-0.059 -95.868767,-5.24065 -12.33309,-3.29613 -22.0444496,-13.00749 -25.3405796,-25.34339 -5.18164,-19.3328 -5.24065,-57.98154 -5.24065,-59.61696 0,-1.63542 0.05901,-40.281347 5.24346,-59.619767 3.29613,-12.33309 13.0074896,-22.04445 25.3433896,-25.34058 19.3328,-5.18164 92.746857,-5.24065 95.863147,-5.24065 3.11348,0 76.53316,0.05901 95.86877,5.24346 12.3359,3.29613 22.04445,13.00749 25.34058,25.34339 5.18164,19.33842 5.24065,57.978727 5.24065,59.614147 0,1.63542 -0.059,40.28416 -5.24346,59.61977 -3.29332,12.33028 -13.00187,22.04164 -25.34058,25.34058 -19.3328,5.17883 -92.75248,5.24065 -95.86596,5.24065 z m 0,-169.161997 c -25.88291,0 -78.620987,1.01722 -92.960417,4.85849 -8.46653,2.26486 -15.12904,8.92737 -17.39109,17.38828 -4.79948,17.91094 -4.85849,56.329257 -4.85849,56.714227 0,0.38497 0.05901,38.80329 4.85849,56.71142 2.26486,8.46653 8.92737,15.12904 17.38828,17.38828 17.92499,4.8051 92.215767,4.8613 92.963227,4.8613 25.88291,0 78.62099,-1.01441 92.96042,-4.85849 8.46653,-2.26486 15.12904,-8.92737 17.38828,-17.38828 4.8051,-17.92499 4.8613,-56.32926 4.8613,-56.71423 0,-0.38497 -0.059,-38.803287 -4.85849,-56.708607 l -0.003,-0.0056 c -2.25924,-8.46091 -8.92175,-15.12342 -17.38547,-17.38828 -17.92499,-4.8051 -92.21577,-4.85849 -92.96323,-4.85849 z"
   style="fill:#bf9770;fill-rule:nonzero;stroke:#bf9770;stroke-width:2.81;stroke-linecap:butt;stroke-linejoin:miter;stroke-miterlimit:10;stroke-dasharray:none;stroke-opacity:1;fill-opacity:1"
   stroke-linecap="round"
   id="path1" /><path
   d="m 103.69059,169.72559 c -0.96945,0 -1.9389,-0.25009 -2.81,-0.75308 -1.739387,-1.00317 -2.809997,-2.86058 -2.809997,-4.86692 V 91.607593 c 0,-2.00634 1.07061,-3.86375 2.809997,-4.86692 1.73939,-1.00317 3.88061,-1.00317 5.62,0 l 62.77821,36.248997 c 1.73939,1.00317 2.81,2.86058 2.81,4.86692 0,2.00634 -1.07061,3.86375 -2.81,4.86692 l -62.77821,36.25181 c -0.86829,0.50299 -1.84055,0.75027 -2.81,0.75027 z m 5.62,-68.38416 v 53.03032 l 45.91821,-26.51516 z"
   style="fill:#bf9770;fill-rule:nonzero;stroke:#bf9770;stroke-width:2.81;stroke-linecap:butt;stroke-linejoin:miter;stroke-miterlimit:10;stroke-dasharray:none;stroke-opacity:1;fill-opacity:1"
   stroke-linecap="round"
   id="path2" />&#10;<path
   style="fill:#cd5a5a;stroke:#bf9770;stroke-width:0.176389;stroke-linecap:round;stroke-linejoin:round;stroke-opacity:1;paint-order:fill markers stroke"
   d="m 109.15842,206.70616 c -37.704144,-0.59934 -64.753874,-2.27201 -73.549178,-4.54806 -4.722772,-1.22215 -8.348881,-3.2437 -11.583426,-6.45774 -3.637488,-3.61442 -5.683447,-7.36529 -6.956639,-12.75366 -2.232228,-9.44718 -3.661791,-24.60363 -4.299474,-45.58367 -0.753682,-24.7965 1.607613,-56.376664 5.028257,-67.248354 2.376913,-7.554441 8.496462,-13.666652 16.077236,-16.057958 10.051188,-3.170582 45.052802,-5.078708 93.235214,-5.082752 45.6912,-0.0038 80.77723,1.696153 92.616,4.48743 9.20439,2.170156 16.00694,8.724125 18.54359,17.865955 1.89543,6.830936 3.45129,19.975008 4.26714,36.049529 1.50158,29.58508 -0.64819,65.79389 -4.64715,78.27267 -2.65525,8.28572 -9.2483,14.38417 -17.84456,16.50589 -8.37537,2.06721 -29.71492,3.56993 -61.40546,4.32413 -13.45801,0.32029 -36.8485,0.4274 -49.48155,0.22659 z m -2.99422,-37.67778 c 1.73423,-0.83315 63.0518,-36.2638 63.9653,-36.96056 0.38603,-0.29445 0.96018,-1.0537 1.27588,-1.68724 1.14219,-2.29206 0.52241,-5.28372 -1.41036,-6.80782 -0.69771,-0.55018 -60.88434,-35.375986 -63.68784,-36.851714 -3.04193,-1.601232 -7.062119,0.06443 -7.960188,3.298097 -0.152936,0.550669 -0.228488,13.030937 -0.229313,37.878817 -0.0014,41.62213 -0.1366,38.33526 1.65059,40.12245 1.720441,1.72045 4.124331,2.09929 6.395931,1.00797 z"
   id="path3" /></svg>
